<?xml version="1.0" standalone="no"?> 
<!DOCTYPE svg PUBLIC "-//W3C//DTD SVG 1.1//EN" "http://www.w3.org/Graphics/SVG/1.1/DTD/svg11.dtd" >
<svg xmlns="http://www.w3.org/2000/svg">
<defs>
  <font id="icons-ads-data" horiz-adv-x="450">
    <font-face font-family="icons-ads-data"
      units-per-em="512" ascent="448"
      descent="64" />
    <missing-glyph horiz-adv-x="0" />
    <glyph glyph-name="active"
      unicode="&#xF101;"
      horiz-adv-x="450" d=" M224.6 251C175 251 134.6 210.8 134.6 161S175 71 224.6 71C274.3 71 314.6 111.3 314.6 161S274.3 251 224.6 251z" />
    <glyph glyph-name="add"
      unicode="&#xF102;"
      horiz-adv-x="450" d=" M450 176H240V386H210V176H0V146H210V-64H240V146H450" />
    <glyph glyph-name="alert-filled"
      unicode="&#xF103;"
      horiz-adv-x="450" d=" M404 -18V70.3S349 69 346 112.9V197.6C346 231.6 333.9 262.6 311.8 284.6C304.4 292 296 298.3 288 303.4V325C288 341.3 282.3 356.4 272.1 367.7C261.3 379.5 246.3 386 230 386C196.9 386 172 359.8 172 325V306.6C162 301 152.2 293.6 143.2 284.6C116.9 258.4 107 222.4 107 197.6V112.9C103 81 73.9 75 60.5 75H46L46.1 -18H176.9C177.2 -43.4 197.8 -64 223.4 -64C248.9 -64 269.6 -43.4 269.9 -18H404zM201 325C201 343.5 213.2 357 230 357S259 343.5 259 325V316.2C249 319.1 237.9 320.6 226.8 320.6C217.9 320.6 209 319.6 201 317.7V325z" />
    <glyph glyph-name="alert-read-filled"
      unicode="&#xF104;"
      horiz-adv-x="450" d=" M404 -18V70.3S349 69 346 112.9V197.6C346 231.6 333.9 262.6 311.8 284.6C304.4 292 296 298.3 288 303.4V325C288 341.3 282.3 356.4 272.1 367.7C261.3 379.5 246.3 386 230 386C196.9 386 172 359.8 172 325V306.6C162 301 152.2 293.6 143.2 284.6C116.9 258.4 107 222.4 107 197.6V112.9C103 81 73.9 75 60.5 75H46L46.1 -18H176.9C177.2 -43.4 197.8 -64 223.4 -64C248.9 -64 269.6 -43.4 269.9 -18H404zM201 325C201 343.5 213.2 357 230 357S259 343.5 259 325V316.2C249 319.1 237.9 320.6 226.8 320.6C217.9 320.6 209 319.6 201 317.7V325zM163.4 95.2L192.9 66.6L276.2 151L296.9 130.6L193.4 25.8L143.2 74.4L163.4 95.2z" />
    <glyph glyph-name="alert-read"
      unicode="&#xF105;"
      horiz-adv-x="450" d=" M404 -18V70.3S349 69 346 112.9V197.6C346 231.6 333.9 262.6 311.8 284.6C304.4 292 296 298.3 288 303.4V325C288 341.3 282.3 356.4 272.1 367.7C261.3 379.5 246.3 386 230 386C196.9 386 172 359.8 172 325V306.6C162 301 152.2 293.6 143.2 284.6C116.9 258.4 107 222.4 107 197.6V112.9C103 81 73.9 75 60.5 75H46L46.1 -18H176.9C177.2 -43.4 197.8 -64 223.4 -64C248.9 -64 269.6 -43.4 269.9 -18H404zM201 325C201 343.5 213.2 357 230 357S259 343.5 259 325V316.2C249 319.1 237.9 320.6 226.8 320.6C217.9 320.6 209 319.6 201 317.7V325zM75.1 47.2C90.1 49.5 132 64.3 136 112.8V197.5C136 229.1 149.3 249.6 163.7 264C182.2 282.5 202.7 291.5 226.7 291.5C251.3 291.5 273 282.2 291.3 264C307.9 247.4 317 223.8 317 197.5V112.8C319 85.9 324.8 78.3 339 64.1999999999999C347.3999999999999 55.8 363 50.1999999999999 375 47.0999999999999V11H75L75.1 47.2z M197 66.6L167.5 95.2000000000001L147.3 74.4L197.5 25.8L301 130.7L280.3 151.1" />
    <glyph glyph-name="alert"
      unicode="&#xF106;"
      horiz-adv-x="450" d=" M404 -18V70.3S349 69 346 112.9V197.6C346 231.6 333.9 262.6 311.8 284.6C304.4 292 296 298.3 288 303.4V325C288 341.3 282.3 356.4 272.1 367.7C261.3 379.5 246.3 386 230 386C196.9 386 172 359.8 172 325V306.6C162 301 152.2 293.6 143.2 284.6C116.9 258.4 107 222.4 107 197.6V112.9C103 81 73.9 75 60.5 75H46L46.1 -18H176.9C177.2 -43.4 197.8 -64 223.4 -64C248.9 -64 269.6 -43.4 269.9 -18H404zM201 325C201 343.5 213.2 357 230 357S259 343.5 259 325V316.2C249 319.1 237.9 320.6 226.8 320.6C217.9 320.6 209 319.6 201 317.7V325zM75.1 47.2C90.1 49.5 132 64.3 136 112.8V197.5C136 229.1 149.3 249.6 163.7 264C182.2 282.5 202.7 291.5 226.7 291.5C251.3 291.5 273 282.2 291.3 264C307.9 247.4 317 223.8 317 197.5V112.8C319 85.9 324.8 78.3 339 64.1999999999999C347.3999999999999 55.8 363 50.1999999999999 375 47.0999999999999V11H75L75.1 47.2z" />
    <glyph glyph-name="android"
      unicode="&#xF107;"
      horiz-adv-x="450" d=" M299.1 24.5C299.1 3.7 299.1 -16.4 298.8 -36.3C298.8 -49.5 289.3 -61.3 276.9000000000001 -63.4C263.0000000000001 -66.0000000000001 249.7000000000001 -58.7 245.3000000000001 -45.8C244.0000000000001 -42.3 243.3000000000001 -38.3 243.3000000000001 -34.6C243.0000000000001 -16.8 242.9000000000001 0.7 242.9000000000001 18.4V24H205.9V-34.8C205.9 -51.5 194.5 -63.6 178.5 -63.6C162.3000000000001 -63.6 150.9 -51.5 150.9 -34.9V18.4V25H131.6C116.4 25 104.9 33.4 101 47.3C100.2 50.5 99.9 54 99.9 57.5C99.9 115.2 99.9 172.8 99.7 230.4C99.7 234.9 101 235.9 105.4 235.9C185.1 235.8 264.5 235.8 344.3000000000001 235.9C348.9000000000001 235.9 349.9000000000001 234.8 349.9000000000001 230.4C349.7000000000001 172.9 349.7000000000001 115.5 349.7000000000001 58C349.7000000000001 42.8 342.7000000000001 31.2 329.9000000000001 27C324.5000000000001 25.2 318.3000000000001 25.2 312.4000000000001 24.8C308.1000000000001 24.2 303.8000000000001 24.5 299.1000000000001 24.5zM163.4 345.4C157.7 355.7 152.4 365.6 146.9 375.5C146.7 376.1 146.1 376.7 145.9 377.3C144.6 380 141.8 383.2 145.9 385.4C149.7 387.5 151.5 383.8 152.8 381C158.7 370.4 164.4 359.7 170.6 348.9C206.6 363.5 242.6 363.6 279.1 348.8C282.1 354.3 285.5 360.1 288.6 365.9C291.7000000000001 371.4 294.8 376.9 297.6 382.5C299.2000000000001 385.2 301.2000000000001 386.9 304 385.3C307.1 383.8 305.8 381.2 304.5 378.9C298.6 368 292.7 357 286.5 345.6C288 344.5 289.6 343.4 291.4 342.5C317.1 327.2 335.6 306 344.6 277.2C347.4 268.4 348.2 258.7 349.8 249.5C350.3 245.9 348.7 244.9 345.4 244.9C265.2 245 185 245.2 104.8 244.9C99.6 244.9 99.6 247.1 99.9 250.7C103 291.2000000000001 123.3 320.9000000000001 157.2 341.8C159 342.9000000000001 161.1 344 163.4 345.4000000000001zM168 311.1C162.1 311.1 157.7 306.9 157.7 301.1C157.4 295.4 162.3 290.4 168 290.4C173.4 290.3 178.5 295.3 178.5 300.8C178.6 306.8 173.9 311.1 168 311.1zM281.7 311.1C275.8 311.1 271.4 306.5 271.4 300.7C271.4 295.2 276 290.6 281.4 290.3C287.1 290.2 291.9 295 291.9 300.7C292.2 306.6 287.8 311.1 281.7 311.1zM35 154.7V212.6C35 226 42.9 236.5 55.5 240C67.6 243.4 80.9 237.8 86.8 226.3C88.9 222.6 90.1 217.8 90.1 213.6C90.4 174.4 90.4 135.3 90.4 96.2000000000001C90.4 80.9 77.6 68.5000000000001 62.4 68.5000000000001C47.5 68.5000000000001 35 80.6000000000001 35 95.8000000000001V154.7000000000001zM415 154.4V96.9C415 81.1 403.1 68.6 387.7 68.3C372 68.1999999999999 359.3 80.4999999999999 359.3 96.6C359.1 127 359.3 157.3 359.3 187.5C359.3 198.2 358.8 209 360.6 219.4C362.7000000000001 232.9 376 241.9 390.2000000000001 240.5C404.1 239.1 415.0000000000001 227.8 415.0000000000001 213.9C415.2000000000001 194 415.0000000000001 174.2 415.0000000000001 154.4z" />
    <glyph glyph-name="apple"
      unicode="&#xF108;"
      horiz-adv-x="450" d=" M396.8 234C391.1 229.4 385.5 225.1 380.1 220.5C362.2000000000001 205 352.1 185.4 349.2000000000001 161.8C346.3000000000001 137.6 350.7000000000001 115.1 363.9000000000001 94.5C374.0000000000001 78.8 387.6 67 404.2000000000001 58.7C407.8000000000001 56.9 408.7000000000001 55.3 407.3000000000001 51.2C395.8000000000001 17.9 377.7000000000001 -11.6 354.8000000000001 -38C345.1000000000001 -49.1 333.9000000000001 -58.3 318.8000000000001 -61.5C307.5000000000001 -63.9 296.4000000000001 -62.3 285.6000000000001 -58.6C275.3000000000001 -55.1 265.2000000000001 -50.9 254.7000000000001 -47.9C234.9000000000001 -42.1 215.9000000000001 -45.8 197.1000000000001 -53.0000000000001C186.3000000000001 -57.1000000000001 175.4000000000001 -61.2 164.1000000000001 -63.4C151.7000000000001 -65.8 140.4000000000001 -60.3 130.4000000000001 -53.2C117.2000000000001 -43.9 107.4000000000001 -31.4 97.7000000000001 -18.8000000000001C74.9000000000001 11.1999999999999 59.4000000000001 44.8 49.9000000000001 81.0999999999999C44.9000000000001 100.4999999999999 42.0000000000001 120.1999999999999 42.0000000000001 140.4999999999999C41.9000000000001 160.8999999999999 43.9000000000001 180.7999999999999 51.0000000000001 199.8999999999999C63.7000000000001 233.8 85.9000000000001 258.8 120.6000000000001 271.3999999999999C143.0000000000001 279.4999999999999 165.3000000000001 278.8 187.5000000000001 270.4999999999999C198.3000000000001 266.3999999999999 209.3000000000001 262.7999999999999 220.2000000000001 258.9999999999999C225.4000000000001 257.2 230.5000000000001 257.3 235.7000000000001 259.0999999999999C251.1000000000001 264.3999999999999 266.5000000000001 269.9999999999999 282.2000000000001 274.5999999999999C321.6000000000001 286.3999999999999 373.5000000000001 270.2999999999999 396.8000000000001 233.9999999999999zM224.6 294.4C225.1 316 233.7 334.3 247.1 350.8C260.8 367.7 278.8 378 299.3 384.3C303.1 385.4 307.2 385.5 311.1 385.9C314.6 386.3 315.6 384.7 315.7000000000001 381.3C316.2000000000001 354.7 306.8000000000001 331.9 289.6 312C279.6 300.4 267.9000000000001 291 253.1 286.6C245.7 284.4 237.9000000000001 284.1 230.2 282.8C226.0000000000001 282.1 224.4 284 224.7 288C224.7 290.1 224.6 292.3 224.6 294.4z" />
    <glyph glyph-name="apps"
      unicode="&#xF109;"
      horiz-adv-x="450" d=" M268.3 386H71.5C48.2 386 29 367 29 343.8V-21.8C29 -45 48.2 -64 71.5 -64H268.4C291.6 -64 311.1 -45.1 311.1 -21.8V343.8C311 367 291.5 386 268.3 386zM114 365H226V351H114V365zM169.9 -35.9C154.3 -35.9 141.8 -23.3 141.8 -7.8C141.8 7.7 154.3 20.3000000000001 169.9 20.3000000000001C185.4 20.3000000000001 198 7.7 198 -7.8C198 -23.3 185.4 -35.9 169.9 -35.9zM282 48H57V330H282V48zM392.1 343.4L324 363.2V342.5L348.4 335.4L344.6 322.7L324 328.7V308.1L389.5999999999999 288.8L324 65.3V-28.6L418.8 294.2C424.9000000000001 315.1 412.9000000000001 337.2 392.1 343.4z" />
    <glyph glyph-name="area-chart"
      unicode="&#xF10A;"
      horiz-adv-x="450" d=" M450 256.4C450 283.1 428.3 304.8 401.6 304.8S353.2000000000001 283.1 353.2000000000001 256.4C353.2000000000001 246.4 356.2000000000001 237.2 361.4000000000001 229.5L316.4000000000001 183.8C309.4000000000001 187.7 301.4000000000001 189.9 292.9000000000001 189.9C282.8 189.9 273.5000000000001 186.8 265.8 181.5L217.1 232.2C221.1 239.3 223.4 247.5 223.4 256.3C223.4 283.3 201.5 305.3 174.4 305.3S125.4 283.3 125.4 256.3C125.4 247.8 127.6 239.8 131.4 232.8L72.5 173.3C65.4 177.4 57.1 179.8 48.3 179.8C21.6 179.8 -0.3 158.1 -0.3 131.4C-0.3 111 12.9 93.6 29.9 86.5V16.6H417.9000000000001V210.8C437.0000000000001 217.5 450.0000000000001 235.4 450.0000000000001 256.4zM292.9 161.7C304.1 161.7 313.1 152.6 313.1 141.5C313.1 130.3 304 121.3 292.9 121.3S272.7 130.4 272.7 141.5C272.7 152.7 281.7 161.7 292.9 161.7zM48.4 151.7C59.6 151.7 68.6 142.6 68.6 131.5C68.6 120.3 59.6 111.3 48.4 111.3S28.2 120.4 28.2 131.5S37.2 151.7 48.4 151.7zM60 46.6V84.6C81 90 96.5 109 96.5 131.5C96.5 139.1 94.8 146.3000000000001 91.7 152.8000000000001L151.4 213.1C158.3 209.4 166.1 207.4 174.4 207.4C182.5 207.4 190.1 209.4 196.8 212.8000000000001L248 159.5000000000001C245.8 154.0000000000001 244.6 147.9000000000001 244.6 141.6000000000001C244.6 114.9 266.3 93.2000000000001 292.9 93.2000000000001C319.6 93.2000000000001 341.3 114.9 341.3 141.6000000000001C341.3 149.5000000000001 339.4 157.0000000000001 336 163.7000000000001L383.3999999999999 211.7000000000001C384.8999999999999 211.1000000000001 386.0999999999999 210.5000000000001 388.0999999999999 210.1000000000001V46.8000000000001H60zM401.6 236.1C390.4000000000001 236.1 381.4000000000001 245.2 381.4000000000001 256.3C381.4000000000001 267.5 390.5000000000001 276.5 401.6 276.5S421.8 267.4000000000001 421.8 256.3S412.8 236.1 401.6 236.1z" />
    <glyph glyph-name="arrow-down-big"
      unicode="&#xF10B;"
      horiz-adv-x="450" d=" M237 36V386H212V36L124.8 35.9L225 -64L324.8 36" />
    <glyph glyph-name="arrow-down"
      unicode="&#xF10C;"
      horiz-adv-x="450" d=" M410.3 293.3L225 107.9L39.6 293.3L0 253.7L225 28.7L450 253.7" />
    <glyph glyph-name="arrow-left-big"
      unicode="&#xF10D;"
      horiz-adv-x="450" d=" M0 160.6L100 61.1V149H450V174H100L99.9 261.1" />
    <glyph glyph-name="arrow-left"
      unicode="&#xF10E;"
      horiz-adv-x="450" d=" M317.7 386L92.7 161L317.7 -64L357.3 -24.4L171.8 161L357.3 346.4" />
    <glyph glyph-name="arrow-right-big"
      unicode="&#xF10F;"
      horiz-adv-x="450" d=" M350 261.1V174H0V149H350L350.1 61.1L450 160.9" />
    <glyph glyph-name="arrow-right"
      unicode="&#xF110;"
      horiz-adv-x="450" d=" M132.3 386L92.7 346.4L278.1 161L92.7 -24.4L132.3 -64L357.3 161" />
    <glyph glyph-name="arrow-up-big"
      unicode="&#xF111;"
      horiz-adv-x="450" d=" M225.2 386L125 286H212.2V-64H237.2V286L325 286.1" />
    <glyph glyph-name="arrow-up"
      unicode="&#xF112;"
      horiz-adv-x="450" d=" M0 68.3L39.7 28.7L225 214.2L410.4 28.7L450 68.3L225 293.3" />
    <glyph glyph-name="attention-alt-filled"
      unicode="&#xF113;"
      horiz-adv-x="450" d=" M225 -64C349.1 -64 450 36.9 450 161S349.1 386 225 386S0 285.1 0 161S100.9 -64 225 -64zM190 268H261V149H190V268zM225.3 125.5C244.9 125.5 260.8 109.6 260.8 90S244.9 54.5 225.3 54.5S189.8 70.4 189.8 90S205.7 125.5 225.3 125.5z" />
    <glyph glyph-name="attention-alt"
      unicode="&#xF114;"
      horiz-adv-x="450" d=" M190 268H261V149H190z M225 386C349.1 386 450 285.1 450 161S349.1 -64 225 -64S0 36.9 0 161S100.9 386 225 386zM225 -40.3C336 -40.3 426.3 50 426.3 161S336 362.3 225 362.3C114 362.3 23.7 272 23.7 161S114 -40.3 225 -40.3z M189.8 89.9C189.8 109.5 205.7 125.4 225.3 125.4S260.8 109.5 260.8 89.9S244.9 54.4 225.3 54.4S189.8 70.3 189.8 89.9z" />
    <glyph glyph-name="attention"
      unicode="&#xF115;"
      horiz-adv-x="450" d=" M211 273H239V133H211zM211 77H239V48H211z M225 357.9C277.6 357.9 327 337.4 364.2 300.2C401.4 263 421.9 213.6 421.9 161C421.9 108.4 401.4 59 364.2 21.8C327 -15.4 277.6 -35.9 225 -35.9C172.4 -35.9 123 -15.4 85.8 21.8S28.1 108.4 28.1 161C28.1 213.6 48.6 263 85.8 300.2C123 337.4 172.4 357.9 225 357.9M225 386C100.7 386 0 285.3 0 161S100.7 -64 225 -64S450 36.7 450 161S349.3 386 225 386z" />
    <glyph glyph-name="availability"
      unicode="&#xF116;"
      horiz-adv-x="450" d=" M90.8 48.7C78.4 48.7 68.3 38.6 68.3 26.2S78.4 3.7 90.8 3.7S113.3 13.8 113.3 26.2S103.2 48.7 90.8 48.7z M394.2 250H315V284.7C315 328.1 280.2 363 236.7 363H225V262.2C225 231.2 200.3 205 169.2 205H0V-42H394.3C425.3 -42 450.1 -16.4 450.1 14.7V194.7C450 225.7 425.3 250 394.2000000000001 250zM23 -20V183H135V-20H23zM394.2 -20H158V183H169.2C212.6 183 248 218.7 248 262.2V339.8C274 334.6 293 311.9 293 284.7V228H394.2C412.8 228 428 213.3 428 194.7V183H360V160H428V115H360V93H428V48H360V25H428V14.7C428 -4 412.9 -20 394.2 -20z" />
    <glyph glyph-name="ban-filled"
      unicode="&#xF117;"
      horiz-adv-x="450" d=" M225 386C100.9 386 0 285.1 0 161C0 101.2 23.6 46.8 61.9 6.5L380.3 323.5C339.8 362.1 285.2 386 225 386zM399.4 302.9L82.3 -12.8C121.2 -44.8 170.9 -64 225 -64C349.1 -64 450 36.9 450 161C450 214.8 431 264.1 399.4 302.9z" />
    <glyph glyph-name="ban"
      unicode="&#xF118;"
      horiz-adv-x="450" d=" M225 386C100.9 386 0 285.1 0 161S100.9 -64 225 -64S450 36.9 450 161S349.1 386 225 386zM28.1 161C28.1 269.6 116.4 357.9 225 357.9C277.1 357.9 324.5 337.6 359.7 304.4L82.1 25.7C48.7 61 28.1 108.7 28.1 161zM225 -35.9C178.9 -35.9 136.4 -20 102.8 6.7L378.8 283.7000000000001C405.7 250.0000000000001 421.8 207.4 421.8 161.0000000000001C421.9000000000001 52.4000000000001 333.6 -35.9 225 -35.9z" />
    <glyph glyph-name="bar-bad"
      unicode="&#xF119;"
      horiz-adv-x="450" d=" M309 48H365V-64H309zM196 189H253V-64H196zM84 386H140V-64H84z" />
    <glyph glyph-name="bar-chart"
      unicode="&#xF11A;"
      horiz-adv-x="450" d=" M337 105H393V21H337zM224 161H281V21H224zM112 330H168V21H112z M421 -64H28V386H56V-36H421" />
    <glyph glyph-name="bar-ok"
      unicode="&#xF11B;"
      horiz-adv-x="450" d=" M84 48H140V-64H84zM309 189H365V-64H309zM196 386H253V-64H196z" />
    <glyph glyph-name="bar-up"
      unicode="&#xF11C;"
      horiz-adv-x="450" d=" M75 26H135V-64H75zM195 176H255V-64H195zM315 386H375V-64H315z" />
    <glyph glyph-name="bolt-filled"
      unicode="&#xF11D;"
      horiz-adv-x="450" d=" M144.7 -64C143.1 -64 141.6 -63.7 140.1 -63C135.1 -60.7 132.5 -55.1 134.1 -49.8L192.5 150.5L95.8 123.5C91.9 122.4 87.8 123.5 84.9 126.4C82.1 129.3 81 133.4 82.2 137.3L144.5 349.2C145.6 352.9 148.6 355.8 152.3 356.8L264.3 385.8C268.1 386.8 272.3 385.6 275 382.8C277.8 379.9 278.8 375.8 277.6 371.9L243.6 259.3L354.2000000000001 288.9C358.6 290 363.3000000000001 288.4 366.0000000000001 284.7C368.7000000000001 281 368.8000000000001 276 366.4000000000001 272.2L154 -58.9C151.9 -62.2 148.4 -64 144.7 -64z" />
    <glyph glyph-name="bolt"
      unicode="&#xF11E;"
      horiz-adv-x="450" d=" M144.7 -64C143.1 -64 141.6 -63.7 140.1 -63C135.1 -60.7 132.5 -55.1 134.1 -49.8L192.5 150.5L95.8 123.5C91.9 122.4 87.8 123.5 84.9 126.4C82.1 129.3 81 133.4 82.2 137.3L144.5 349.2C145.6 352.9 148.6 355.8 152.3 356.8L264.3 385.8C268.1 386.8 272.3 385.6 275 382.8C277.8 379.9 278.8 375.8 277.6 371.9L243.6 259.3L354.2000000000001 288.9C358.6 290 363.3000000000001 288.4 366.0000000000001 284.7C368.7000000000001 281 368.8000000000001 276 366.4000000000001 272.2L154 -58.9C151.9 -62.2 148.4 -64 144.7 -64zM208.7 177.5C211.6 177.5 214.5 176.4 216.6 174.2C219.4 171.3 220.5 167.2 219.4 163.3L176.8 17.4L332.5 259.9L230.3 232.6C226.4 231.6 222.3 232.7 219.5 235.6C216.7 238.5 215.7 242.6 216.9 246.5L251 359.3L164 336.8L109.1 150.1L205.8 177.1C206.7 177.4 207.7 177.5 208.7 177.5z" />
    <glyph glyph-name="book"
      unicode="&#xF11F;"
      horiz-adv-x="450" d=" M390 296V386H324.2C259.5 386 214.9 350.2 210.4 296H0V-34H150V-64H300V-34H450V296H390zM324.2 356H360V116H324.2C290.1 116 260.5 97.8 240 71.9V286.8C240 337.9 285.4 356 324.2 356zM30 -4V266H210V-4H30zM420 -4H240C240 26 276.8 86 324.2 86H390V266H420V-4z" />
    <glyph glyph-name="bubble-chart"
      unicode="&#xF120;"
      horiz-adv-x="450" d=" M30 368.5H0V-46.5H445V-16.5H30 M322.1 74.8C322.1 51.7 340.9000000000001 32.9 364 33C387.1 33 405.9 51.7 405.9 74.9C405.9 98 387.2 116.8 364 116.8C340.8 116.6999999999999 322.1 97.9 322.1 74.8zM383.1 193.3C420 193.3 450 223.2 450 260.1S420.1 327 383.1 327C346.3 327 316.3 297 316.3 260.1C316.3 223.3 346.3 193.3 383.1 193.3zM176.5 16.7C234.2 16.7 281.1 63.6 281.1 121.3C281.1 179.1 234.2 225.9 176.5 225.9S71.9 179 71.9 121.3C71.9 63.5 118.8 16.7 176.5 16.7z" />
    <glyph glyph-name="bulk-edit"
      unicode="&#xF121;"
      horiz-adv-x="450" d=" M225 342.5C100.9 342.5 -0.1 241.5 0 117.5C0 65.4 17.8 17.6 47.7 -20.6H74.4C74.3 -20.5 74.3 -20.4 74.2 -20.4H176.9L177.2 -20.5000000000001L312 114.7L326.2 128.7V128.6L374.6 176.9L263.7 287.7L251 300.5L53.5 103L53.7 102.8V6C32.6 38.1 20.3 76.3 20.3 117.5C20.3 230.3 112.1 322.1 225 322.1C337.8 322.1 429.6 230.4 429.6 117.6C429.6 64.4 409 15.7 375.6 -20.3H402.3C432.1 17.7 450 65.6 450 117.6C450 241.7 349.1 342.5 225 342.5zM347.7 175.5L313.5 141.3L215.4 239.5L249.6 273.7L347.7000000000001 175.5zM201 225.2L243.9 182.4L143.7 82.1L156.3 69.4999999999999L256.5 169.6999999999999L299.2 127L171.2 -0.9000000000001H133.4L73 59.6V97.3L201 225.2z" />
    <glyph glyph-name="calendar-filled"
      unicode="&#xF122;"
      horiz-adv-x="450" d=" M119 386H143V292H119zM309 386H332V292H309zM239 98H319V17H239zM131 205H212V124H131zM131 98H212V17H131zM23 -10H427V-64H23zM23 98H104V17H23zM23 205H104V124H23zM239 205H319V124H239zM346 98H427V17H346zM346 205H427V124H346z M360 339V265H282V339H169V265H92V339H23V232H427V339" />
    <glyph glyph-name="calendar"
      unicode="&#xF123;"
      horiz-adv-x="450" d=" M330 326V386H300V326H150V386H120V326H30V-64H420V326H330zM60 176H120V116H60V176zM300 116H240V176H300V116zM150 86H210V26H150V86zM240 86H300V26H240V86zM210 116H150V176H210V116zM60 86H120V26H60V86zM390 -34H60V-4H390V-34zM390 26H330V86H390V26zM390 116H330V176H390V116zM390 206H60V296H120V266H150V296H300V266H330V296H390V206z" />
    <glyph glyph-name="caret-down"
      unicode="&#xF124;"
      horiz-adv-x="450" d=" M224.4 92L95 229.7H355" />
    <glyph glyph-name="caret-left"
      unicode="&#xF125;"
      horiz-adv-x="450" d=" M156.3 161.6L294 291V31" />
    <glyph glyph-name="caret-right"
      unicode="&#xF126;"
      horiz-adv-x="450" d=" M293.7 160.4L156 31V291" />
    <glyph glyph-name="caret-up"
      unicode="&#xF127;"
      horiz-adv-x="450" d=" M225.6 230.3L355 92.7H95" />
    <glyph glyph-name="check-circle-filled"
      unicode="&#xF128;"
      horiz-adv-x="450" d=" M225 386C101 386 0 285.1 0 161S101 -64 225 -64C349.1 -64 450 36.9 450 161S349.1 386 225 386zM178.1 51.1L85.2 145.4L106.6 166.5L178.2 93.8L343.5 260.1L364.8 239.0000000000001L178.1 51.1z" />
    <glyph glyph-name="check-circle"
      unicode="&#xF129;"
      horiz-adv-x="450" d=" M178.2 93.8L106.5 166.5L85.2 145.4L178.1 51.1L364.8 239L343.5 260.1 M225 386C101 386 0 285.1 0 161S101 -64 225 -64C349.1 -64 450 36.9 450 161S349.1 386 225 386zM225 -40.3C114 -40.3 23.7 50 23.7 161S114 362.3 225 362.3S426.3 272 426.3 161S336 -40.3 225 -40.3z" />
    <glyph glyph-name="check-empty"
      unicode="&#xF12A;"
      horiz-adv-x="450" d=" M0 385.7V-64.3H450V385.7H0zM418 -32.3H32V353.7H418V-32.3z" />
    <glyph glyph-name="check-filled"
      unicode="&#xF12B;"
      horiz-adv-x="450" d=" M0 386V-64H450V386H0zM391.4 264.9L170.6 24.8L56.9 122.5L86.2 156.6L167 87.2L360 297.2L393.1 266.7L391.4000000000001 264.9z" />
    <glyph glyph-name="check"
      unicode="&#xF12C;"
      horiz-adv-x="450" d=" M142.7 -1.7L1 141L22.1 161.9L142.9 40.3L428.1 323.7L449 302.7" />
    <glyph glyph-name="circle-add-filled"
      unicode="&#xF12D;"
      horiz-adv-x="450" d=" M225 388.2C101 388.2 0 287.3 0 163.2S101 -61.8 225 -61.8C349.1 -61.8 450 39.1 450 163.2S349.1 388.2 225 388.2zM343 145H233V44H206V145H105V172H206V282H233V172H343V145z" />
    <glyph glyph-name="circle-add"
      unicode="&#xF12E;"
      horiz-adv-x="450" d=" M225 386.1C100.9 386.1 -0.1 285.1 -0.1 161S100.9 -64.1 225 -64.1S450.1 36.9 450.1 161S349.1 386.1 225 386.1zM225 -35.9C116.4 -35.9 28.1 52.4 28.1 161S116.4 357.9 225 357.9S421.9 269.6 421.9 161S333.6 -35.9 225 -35.9z M232 282H205V172H104V145H205V44H232V145H342V172H232" />
    <glyph glyph-name="circle-remove-filled"
      unicode="&#xF12F;"
      horiz-adv-x="450" d=" M225 386.3C101 386.3 0 285.4 0 161.3S101 -63.7 225 -63.7C349.1 -63.7 450 37.2 450 161.3S349.1 386.3 225 386.3zM343 143H105V170H343V143z" />
    <glyph glyph-name="circle-remove"
      unicode="&#xF130;"
      horiz-adv-x="450" d=" M225 386.1C100.9 386.1 -0.1 285.1 -0.1 161S100.9 -64.1 225 -64.1S450.1 36.9 450.1 161S349.1 386.1 225 386.1zM225 -35.9C116.4 -35.9 28.1 52.4 28.1 161S116.4 357.9 225 357.9S421.9 269.6 421.9 161S333.6 -35.9 225 -35.9z M102 172H340V145H102z" />
    <glyph glyph-name="circle-removed-filled"
      unicode="&#xF131;"
      horiz-adv-x="450" d=" M225 386.312C100.956 386.312 0 285.384 0 161.312S100.956 -63.688 225 -63.688C349.1 -63.688 450 37.24 450 161.312S349.1 386.312 225 386.312zM343 143H105V170H343V143z" />
    <glyph glyph-name="code"
      unicode="&#xF132;"
      horiz-adv-x="450" d=" M43.7 157.2L168.8 283H125.9L0.5 157.4L117.7 39H161.9M329.3 283H285.7L407.7 161L285.7 39H329.2L450.5 161M244.4 344L168.1 -22H200.2L276.4000000000001 344" />
    <glyph glyph-name="column"
      unicode="&#xF133;"
      horiz-adv-x="450" d=" M308.4 339H0V-17H450V339H308.4zM168 310H283V12H168V310zM28 310H142V12H28V310zM422 12H309V310H422V12z" />
    <glyph glyph-name="completion"
      unicode="&#xF134;"
      horiz-adv-x="450" d=" M0.7 369.2V39.3H317.6V-47.2L418.4 52L317.6 154.3V67.8H29.3V340.7H420.7V39.4H449.3V369.2" />
    <glyph glyph-name="conversions"
      unicode="&#xF135;"
      horiz-adv-x="450" d=" M357 293.1H296V263.1H327V58.1H281.6L281.9000000000001 151.1L169.6 44L281.3 -64L281.6 28.1H357M123 263.1H170.4L170.9 170.9L282.2 279L169.6 386L170.2 293.1H93V28.1H157V58.1H123" />
    <glyph glyph-name="copy-filled"
      unicode="&#xF136;"
      horiz-adv-x="450" d=" M0 291V-64H355V291H0zM284 31H71V54H284V31zM284 102H71V125H284V102zM284 173H71V197H284V173z M95 386V309H375V31H450V386" />
    <glyph glyph-name="copy"
      unicode="&#xF137;"
      horiz-adv-x="450" d=" M71 125H284V102H71zM71 197H284V173H71zM71 54H284V31H71z M0 -64H355V291H0V-64zM24 268H332V-40H24V268z M95 386V291H118V362H426V54H355V31H450V386" />
    <glyph glyph-name="dashboard-filled"
      unicode="&#xF138;"
      horiz-adv-x="450" d=" M225 386C100.7 386 0 285.2 0 161S100.7 -64 225 -64S450 36.8 450 161S349.3 386 225 386zM225 338.6C238.1 338.6 248.7 328 248.7 314.9S238.1 291.3 225 291.3S201.3 301.9 201.3 315S211.9 338.6 225 338.6zM112.3 226C105.8 214.7 91.3 210.8 79.9 217.3C68.6 223.8 64.7 238.3 71.2 249.7C77.7 261 92.2 264.9000000000001 103.5 258.4000000000001C115 251.9000000000001 118.9 237.4000000000001 112.3 226.0000000000001zM159.9 273.7C148.6 267.2 134.1 271 127.5 282.4C121 293.7 124.8 308.2 136.2 314.8C147.5 321.3 162 317.4 168.5 306.1C175.1 294.7 171.3 280.2000000000001 159.9 273.7000000000001zM255.8 48.5C246 31.5 224.3 25.7 207.3 35.5S184.5 67 194.3 84C202 97.4 217.1 103.7 231.5 101L290.2 203L310.7 191.2L251.9 89.3C261.4 78.1 263.5 61.9 255.8 48.4999999999999zM322.4 282.4C315.9 271 301.4 267.2 290 273.7C278.7 280.2 274.8 294.7 281.3 306.1C287.8 317.5 302.3 321.3 313.7 314.8C325.1 308.2 329 293.7 322.4 282.4zM370.1 217.4C358.7 210.9 344.3 214.7 337.7 226.1C331.2 237.4 335 251.9 346.4 258.5C357.7 265 372.2 261.1 378.7 249.8C385.3 238.4 381.4 223.9 370.1 217.4z" />
    <glyph glyph-name="dashboard"
      unicode="&#xF139;"
      horiz-adv-x="450" d=" M225 291.3C238.1 291.3 248.7 301.9 248.7 315S238.1 338.6 225 338.6S201.3 328 201.3 314.9S211.9 291.3 225 291.3zM313.7 314.7C302.4 321.2 287.9 317.4 281.3 306C274.8 294.7 278.7 280.2 290 273.6C301.3 267.1 315.8 270.9 322.4 282.3C329 293.7 325.1 308.2 313.7 314.7zM103.6 258.4C92.3 264.9 77.8 261.1 71.3 249.7C64.8 238.3 68.7 223.9 80 217.3C91.3 210.8 105.8 214.6 112.4 226C118.9 237.4 115 251.9 103.6 258.4zM136.2 314.7C124.9 308.2 121 293.7 127.5 282.3C134 270.9 148.5 267.1 159.9 273.6C171.2 280.1 175.1 294.6 168.6 306C162.1 317.4 147.6 321.3 136.2 314.7zM378.7 249.7C372.2 261 357.7 264.9 346.4 258.4C335.1 251.9 331.2 237.4 337.7 226C344.2 214.7 358.7 210.8 370.1 217.3C381.4 223.9 385.3 238.4 378.7 249.7z M225 386C100.7 386 0 285.2 0 161S100.7 -64 225 -64S450 36.8 450 161S349.3 386 225 386zM225 -40.3C113.8 -40.3 23.7 49.8 23.7 161S113.8 362.3 225 362.3S426.3 272.2 426.3 161S336.2 -40.3 225 -40.3z M290.2 203L231.4 101.1C217 103.7000000000001 202 97.4 194.2 84.1C184.4 67.1 190.2 45.4 207.2 35.6C224.2 25.8 245.9 31.6 255.7 48.6C263.4 62 261.3 78.2000000000001 251.9 89.3L310.7 191.2L290.2 203z" />
    <glyph glyph-name="delete-filled"
      unicode="&#xF13A;"
      horiz-adv-x="450" d=" M298 336V385.9L148 386V336H39V279H411V336H298zM268 336H178V357.1H268V336zM99 247H69V-64H381V247H99zM163 -4H133V206H163V-4zM239 -4H209V206H239V-4zM309 -4H279V206H309V-4z" />
    <glyph glyph-name="delete"
      unicode="&#xF13B;"
      horiz-adv-x="450" d=" M297 336V385.9L153 386V336H39V279H411V336H297zM268 336H182V357.1H268V336zM354 -35H96V250H67V-64H383V250H354 M145 222H174V-7H145zM210 222H239V-7H210zM278 222H307V-7H278z" />
    <glyph glyph-name="delivery-filled"
      unicode="&#xF13C;"
      horiz-adv-x="450" d=" M450 345H149V301H96.8L0 207.7V44H49.3C49.5 7 79.6 -23 116.7 -23C153.9 -23 184.1 7.2 184.1 44.4V45.1L283 45.9V44.4C283 7.2 313.2 -23 350.4 -23S417.8 7.2 417.8 44.4C417.8 45.3 417.8 46.1 417.7 47H450V345zM150 176H52V183.6L108.1 239H150V176z" />
    <glyph glyph-name="delivery"
      unicode="&#xF13D;"
      horiz-adv-x="450" d=" M140.7 340.8V299.3H99L0 204V31.4H61C67.1 2.7 92.6 -18.8 123.1 -18.8C154 -18.8 179.6 3.2 185.3 32.4V31.4H281C287.1 2.7 312.6 -18.8 343.1 -18.8C374.5 -18.8 400.5 4 405.6 34H450V340.8H140.7zM423.5 60.5H404.5C397.5 87.9 372.6 108.2 343 108.2C312.5 108.2 287 86.7 280.9 58H185.3V57C179.6 86.2 153.9 108.2 123.1 108.2C92.6 108.2 67.1 86.7 61 58H26.5V192.7L109.7 272.8H167.2V314.3H423.5V60.5z M62.5 175.6V168.7H154.2V228H114.9" />
    <glyph glyph-name="desktop"
      unicode="&#xF13E;"
      horiz-adv-x="450" d=" M0 352V37H450V352H0zM427 60H23V330H427V60zM113 15H337V-30H113z" />
    <glyph glyph-name="diagnose-filled"
      unicode="&#xF13F;"
      horiz-adv-x="450" d=" M300 281V341H150V281H0V-19H450V281H300zM180 311H270V281H180V311zM300 101H240V41H210V101H150V131H210V191H240V131H300V101z" />
    <glyph glyph-name="diagnose"
      unicode="&#xF140;"
      horiz-adv-x="450" d=" M300 296.1V356.1H150V296.1H0V-33.9H450V296.1H300zM180 326.1H270V296.1H180V326.1zM420 -3.9H30V266.1H420V-3.9z M240 206H210V146H150V116H210V56H240.2L241.4 116H300V146H240" />
    <glyph glyph-name="display-guaranteed"
      unicode="&#xF141;"
      horiz-adv-x="450" d=" M321.1 93.1C349 93.1 371.7000000000001 116.3 371.7000000000001 144.8C371.7000000000001 173.3 349.0000000000001 196.5 321.1 196.5C293.2000000000001 196.5 270.5 173.3 270.5 144.8C270.5 116.3 293.1 93.1 321.1 93.1z M234.4 298.2C220.6 348.2 174.3 386 119.3 386C53.4 385.9 -0.2 332.5 -0.2 266.6C-0.2 211.6 36.5 165.3 87.5 151.5V-64.9H449.5V298.1H234.4zM39.1 242.3L51.8 257.3L91.5 223.8L184 323.2L198.4 309.8L93.2 196.8L39.1 242.3zM425 -40.3H340.7L188.5 107.1L111 22.7V147.6C113 147.5 116.3 147.4 118.8 147.4C184.7 147.4 238.4 200.1 238.4 266C238.4 268.5 238.6 270.7 238.4 272.7H425V-40.3z" />
    <glyph glyph-name="download"
      unicode="&#xF142;"
      horiz-adv-x="450" d=" M139 -36H392V-64H139zM282.5 134V217.1C282.5 257.7 263.6 300.1 230.8 333.4C197.8 366.8 155.6 386 115 386H57.5V358H115C148.1 358 183 341.8 210.8 313.7C238.5 285.6 254.5 250.4 254.5 217.1V134H166.5L266.5 40.7L371.5 134.1L282.5 134z" />
    <glyph glyph-name="e-staff"
      unicode="&#xF143;"
      horiz-adv-x="450" d=" M425 264.7H378V385.6H356V374.6H94V385.6H72V264.6H25V244.6H33V120.7H34L204.6 12.5L113 -45.7L124.5 -63.9L224.8 -0.4L324.9 -64L336.4 -45.8L244.7 12.5L415.3 120.7H416V244.7H425V264.7zM94 278.7H356V170.7H94V278.7zM55 244.7H72V170.7H55V244.7zM224.6 25.3L74.2 120.7H375.2L224.6 25.3zM394 170.7H378V244.7H394V170.7z" />
    <glyph glyph-name="edit-filled"
      unicode="&#xF144;"
      horiz-adv-x="450" d=" M449.7 207.7L269.9 386.5L216.1 332.7L395.9 153.9M210.1 -34.5L378 132.9L304 202.4L135.2 32.9L110.4 54.8L279.8 223.7L195 311.5L0 109.5V-64.5H450V-34.5H210.1zM312.2 207.7L28 6.8V59.9L125.9 -34.5H72.6z" />
    <glyph glyph-name="edit"
      unicode="&#xF145;"
      horiz-adv-x="450" d=" M450 200.1L281.7 376.9L0 100.7V-64H450V-36H210.1L450 200.1zM410 200.5L363.1 154.2L230.7 286.6L281.2 336.2L410 200.5zM170 -36H100.1L29 43.9V88.8L212.5 268.9L272.2 209.1999999999999L128.7 66L146.6 48L290.1 191.2L344.9000000000001 136.4L170 -36z" />
    <glyph glyph-name="euro"
      unicode="&#xF146;"
      horiz-adv-x="450" d=" M422.6 -27.1L408.8 -29.6C324 -44.7 257.6 -32.9 211.7 5.5C179.3 32.6 162.4 68.8 153.7 96.9H361.6V124.9H146.6C142.8 144.7 142.4 159 142.4 161.3C142.8000000000001 168.4 143.4 175.2 144.2000000000001 181.9H361.6V209.9H148.7C158.9 256.9 180.2 293.1 212.4 317.9C251.2 347.8 299.5 355.9 333.2 357.4C370.5 359.1 398.8 353.4 399.1 353.3L412.9000000000001 350.4L418.7000000000001 377.9L404.9 381C403.6 381.3 373.5 387.4 332.9 385.7C278.5 383.4 231 367.7 195.5 340.4C156.3 310.3 131 266.6 120 210H22.5V182H115.8C115.1 175.6 114.6 169.1 114.2 162.4V161.6C114.2 160.8 114.3 146.3 117.9 124.9H22.5V96.9H124.2C137.1 50.2 161 11.2 193.3 -15.9C231.6 -48.0000000000001 281.3 -64.1 341.5 -64.1C364.1 -64.1 388.1 -61.8 413.6 -57.3L427.4000000000001 -54.8L422.6 -27.1z" />
    <glyph glyph-name="event-filled"
      unicode="&#xF147;"
      horiz-adv-x="450" d=" M224.9 100.2L449.6 -32.1L308.9000000000001 149.9L414 212V324.7H278.3L225.8 257.3L173.7 324.7000000000001H35V212L141.7 149.2L0.2 -32.6L224.9 100.2z" />
    <glyph glyph-name="event"
      unicode="&#xF148;"
      horiz-adv-x="450" d=" M224.9 100.2L449.6 -32.1L308.9000000000001 149.9L414 212V324.7H278.3L225.8 257.3L173.7 324.7000000000001H35V212L141.7 149.2L0.2 -32.6L224.9 100.2zM354.4 51.8L248.5 114.1L288.1 137.5L354.4 51.8zM224.9 128L177.4 156L225.8 218.1L273.3 156.7L224.9 128zM290 300.7H390V225.7L294.1 169L241 237.7L290 300.7zM59 225.7V300.7H161.9L210.6 237.7L156.5 168.2L59 225.7zM201.3 114.1L96.7 52.3L162.5 136.9L201.3 114.1z" />
    <glyph glyph-name="exchange"
      unicode="&#xF149;"
      horiz-adv-x="450" d=" M394 65H168.4V159.9L56 45.5L168.5 -64.2L168.4 37H394M281.1 159.9L393.5 270.7L281 385.8L281.1 290H56V262H281.1" />
    <glyph glyph-name="eye-filled"
      unicode="&#xF14A;"
      horiz-adv-x="450" d=" M444.7 169.6C418.4 204.5 383.6 233.1 344.1 252.3L341.7000000000001 253.5S239.3000000000001 306 108.4 253.5L105.9 252.3C66.4 233.1 31.5 204.5 5.3 169.6L0 162.6L5.3 155.6C58.1 85.4 138.2 45.2 225 45.2C311.8 45.2 391.9 85.4 444.7 155.5L450 162.5L444.7 169.6zM224.8 99C190.6 99 162.8 126.7 162.8 161S190.5 223 224.8 223C259 223 286.8 195.3 286.8 161C286.8 126.8 259 99 224.8 99z" />
    <glyph glyph-name="eye"
      unicode="&#xF14B;"
      horiz-adv-x="450" d=" M225 223C190.8 223 163 195.3 163 161C163 126.8 190.7 99 225 99C259.2 99 287 126.7 287 161S259.2 223 225 223z M444.7 169.6C418.4 204.5 383.6 233.1 344.1 252.3L341.7000000000001 253.5S239.3000000000001 306 108.4 253.5L105.9 252.3C66.4 233.1 31.5 204.5 5.3 169.6L0 162.6L5.3 155.6C58.1 85.4 138.2 45.2 225 45.2C311.8 45.2 391.9 85.4 444.7 155.5L450 162.5L444.7 169.6zM225 74.2C153.3 74.2 86.8 106.2 41.5 162.4C62.9 188.8 90 210.6 120.6 225.8C120.6 225.8 216.5 271.9 329.4 225.8C360 210.5 387.2 188.7 408.6 162.4C363.2 106.2 296.8 74.2 225 74.2z" />
    <glyph glyph-name="favorite-empty"
      unicode="&#xF14C;"
      horiz-adv-x="450" d=" M225 305.2L257.4 204.7L262.2 190H383.6L298 128.1L285.3 118.9L290.2 104.0000000000001L323 3.5L237.6 65.8L225 75L212.4 65.8L127 3.5L159.9 103.9L164.8 118.8L152.1 128.1L66.4 190H187.8L192.6 204.7L225 305.2M225 374.9L172.1 211H0L139.5 110.5L86 -53L225 48.5L364.1 -53L310.5 110.5L450 211H277.8L225 374.9z" />
    <glyph glyph-name="favorite"
      unicode="&#xF14D;"
      horiz-adv-x="450" d=" M224.7 374.9L171.9 211H-0.3L139.2 110.5L85.7 -53L224.7 48.5L363.8 -53L310.2 110.5L449.7 211H277.5L224.7 374.9z" />
    <glyph glyph-name="feedback-filled"
      unicode="&#xF14E;"
      horiz-adv-x="450" d=" M19 308V-63.5L105.8 77H352V308H19zM200 155H97V180H200V155zM276 206H97V231H276V206zM302 385H327V334H302zM400 353.362L418.11 335.2680000000001L391.18 308.3160000000001L373.072 326.4100000000001zM378 283H430V258H378z" />
    <glyph glyph-name="feedback"
      unicode="&#xF14F;"
      horiz-adv-x="450" d=" M19 -63.2L105.3 78H352V309H19V-63.2zM44 284H327V103H91.3L44 26.1V284z M97 232H276V207H97zM97 181H200V156H97zM302 386H327V335H302zM399.467 353.877L417.577 335.783L390.647 308.831L372.537 326.926zM378 284H430V259H378z" />
    <glyph glyph-name="female"
      unicode="&#xF150;"
      horiz-adv-x="450" d=" M373.5 237.7C373.5 319.6 306.9 386.3 225 386.3S76.6 319.7 76.6 237.7C76.6 164.4 130.1 103.3 200.1 91.3V35H152.1V-15H200.1V-64H250.1V-15H299.1V35H250.1V91.3C320 103.3 373.5 164.4 373.5 237.7zM101.6 237.7C101.6 305.7 157 361.1 225 361.1S348.4000000000001 305.7 348.4000000000001 237.7S293 114.3 225 114.3S101.6 169.7 101.6 237.7z" />
    <glyph glyph-name="filter-filled"
      unicode="&#xF151;"
      horiz-adv-x="450" d=" M169 -64V161.4L10.8 386H439.2L303 161.9V-34.4L169 -64z" />
    <glyph glyph-name="filter"
      unicode="&#xF152;"
      horiz-adv-x="450" d=" M169 -64V161.4L10.8 386H439.2L303 161.9V-34.4L169 -64zM62.6 359L196 170V-30.4L276 -12.7V169.5L391.3 359H62.6z" />
    <glyph glyph-name="flag-filled"
      unicode="&#xF153;"
      horiz-adv-x="450" d=" M292.7 266L236.3 356H105V131H219.4L260.2 56H405V266H292.7zM45 386H75V-64H45z" />
    <glyph glyph-name="flag"
      unicode="&#xF154;"
      horiz-adv-x="450" d=" M292.7 266L236.3 356H105V131H219.4L260.2 56H405V266H292.7zM375 86H275.4L236.2 161H135V326H222.3L278.7 236H375V86zM45 386H75V-64H45z" />
    <glyph glyph-name="gbp"
      unicode="&#xF155;"
      horiz-adv-x="450" d=" M394 39V-34H130V112H350V142H130V261.9C134.6 275.2 164.9 353.8 241 355.9H241.1C241.8 355.9 312.2 357.8 365.1 309.3L376.1 299.2000000000001L396.4000000000001 321.3L385.4000000000001 331.4000000000001C323.9 387.9 244.3 386.1 240.1 386C196.7 384.8 158.7 363.9 130.3 325.6C109.4 297.5 101 269.8 100.6 268.6L100 266.5V142H26V112H100V-34H26V-64H424V39H394z" />
    <glyph glyph-name="gemini"
      unicode="&#xF156;"
      horiz-adv-x="450" d=" M156.255 107.33L181.013 137.33C196.823 124.535 214.477 117.8 233.047 117.8C244.972 117.8 251.385 121.985 251.385 128.96V129.425C251.385 136.167 246.113 139.895 224.34 145.002C190.185 152.915 163.822 162.68 163.822 196.167V196.625C163.822 226.858 187.432 248.712 225.945 248.712C253.222 248.712 274.538 241.272 291.96 227.082L269.73 195.2219999999999C255.06 205.6849999999999 239.01 211.2649999999999 224.797 211.2649999999999C214.02 211.2649999999999 208.755 206.6149999999999 208.755 200.803V200.3379999999999C208.755 192.898 214.252 189.643 236.49 184.5279999999999C273.39 176.3899999999999 296.317 164.2999999999999 296.317 133.8279999999999V133.3619999999999C296.317 100.1069999999999 270.42 80.3449999999999 231.45 80.3449999999999C203.0099999999999 80.3519999999999 175.9649999999999 89.4199999999999 156.255 107.3299999999999zM219.893 261.995H247.081V240.432H219.894zM219.893 82.46H247.081V68.397H219.894z M217.5 386H232.5V311H217.5zM340.418 354.282L353.033 346.1670000000001L312.4580000000001 283.092L299.843 291.208zM426.637 261.2L432.862 247.55L364.612 216.425L358.387 230.075zM448.815 136.475L446.685 121.625L372.435 132.275L374.565 147.125zM400.012 19.295L390.187 7.955L333.487 57.08L343.312 68.42zM295.642 -52.66L281.257 -56.89L260.1070000000001 15.035L274.492 19.265zM168.743 -56.89L154.358 -52.66L175.508 19.265L189.893 15.035zM59.813 7.955L49.987 19.295L106.687 68.42L116.513 57.08zM3.315 121.625L1.185 136.475L75.435 147.125L77.565 132.275zM17.137 247.55L23.362 261.2000000000001L91.612 230.075L85.387 216.425zM96.968 346.1670000000001L109.582 354.282L150.158 291.207L137.543 283.093z" />
    <glyph glyph-name="generate-actions"
      unicode="&#xF157;"
      horiz-adv-x="450" d=" M38.2 48.4C42 42.5 46 36.9 50.3 31.4L104.8 74.2C101.8 77.9 99.1 81.8 96.5 85.8L38.2 48.4zM160.8 303.7L132.2 366.8C125.9 363.9 119.7 360.8 113.7 357.3L148.2 297.2C152.3 299.6 156.5 301.7 160.8 303.7zM96.8 248.6L38.6 286.2C34.8 280.4 31.3 274.4 28.1 268.2L89.5 236.2C91.7 240.5 94.2 244.6 96.8 248.6zM73 166.9V167.7L3.6 166.9C3.6 159.9 3.9 153 4.5 146.1L73.6 152.7C73.1 157.4 73 162.2 73 166.9zM230.4 316.9C235.2 316.6 239.9 316.2 244.6 315.5L254.6 384C247.7 385 240.8 385.7 233.8 386L230.4 316.9zM426.6 248L362.3 222.4C364 218 365.5 213.6 366.9000000000001 209L433.4000000000001 228.3C431.4000000000001 235 429.2000000000001 241.6 426.6 248zM350.5 345.3L310 289C313.9 286.2 317.6 283.3 321.2 280.1L366.7 332.3C361.6 336.9 356.1 341.2 350.5 345.3zM131.4 -32.5C137.7 -35.4 144.2 -37.9 150.8 -40.2L173.4 25.2C168.9 26.8000000000001 164.5 28.6 160.2 30.5000000000001L131.4 -32.4999999999999zM446.6 -24.7L354.6 66.9L407.6 120L207.3 176.6L264.4000000000001 -23.3L315.4000000000001 27.7L407.5 -64" />
    <glyph glyph-name="globe"
      unicode="&#xF158;"
      horiz-adv-x="450" d=" M186.8 100H316.4V76.6H186.8zM119 146.9H384.2V123.5H119zM91.4 193.7H411.7000000000001V170.3H91.4zM83.3 240.6H419.8V217.2H83.3zM91.4 287.5H411.7000000000001V264.1H91.4zM119 334.3H384.2V310.9H119zM186.8 381.2H316.4V357.8H186.8z M251.6 8C194.9 8 138.2 29.6 95 72.8C8.6 159.1 8.6 299.6 94.9 386L111.5 369.4C34.3 292.2 34.3 166.5 111.5 89.3C188.7 12.1 314.4 12.1 391.6 89.3L408.2000000000001 72.6999999999999C365 29.6 308.3 8 251.6 8zM239.8 19.1H263.2V-60.4H239.8z M178.8 -40.6H318.9V-64H178.8z" />
    <glyph glyph-name="go-to"
      unicode="&#xF159;"
      horiz-adv-x="450" d=" M420 -34H30V356H210L180 386H0V-64H450V116L420 146 M280.3 386L343.9000000000001 322.3L195.5 173.9L237.9000000000001 131.4L386.4000000000001 279.9L450.0000000000001 216.3V386" />
    <glyph glyph-name="group"
      unicode="&#xF15A;"
      horiz-adv-x="450" d=" M253 117.1V130.1C270 144.7 281.2 172 281.2 203.2C281.2 249.8 256 287.6 225 287.6C193.9 287.6 168.8 249.9000000000001 168.8 203.2C168.8 172 180 144.7 197 130.1V117.1C133 109.3 84.4 75 84.4 34H365.7000000000001C365.6 75 317.0000000000001 109.3 253.0000000000001 117.1zM141.1 132.3C129.4 139.5 115 144.3 98 146.1V152.6C107 159.9 112.3 173.5 112.3 189.1C112.3 212.4 99.8 231.3 84.3 231.3S56.1 212.4 56.1 189.1C56.1 173.5 62.1 159.9 70.1 152.6V146.1C30 141.7 0 119 0 91H78.9C93.8 108 115.2 122.4 141.1 132.3zM380 146.2V152.7C388 160 393.9 173.6 393.9 189.2C393.9 212.5 381.3 231.4 365.7 231.4S337.8 212.5 337.8 189.2C337.8 173.6 343 160 352 152.7V146.2C335 144.4 320.6 139.4 308.9 132.2C334.8 122.3 356.3 108 371.3 90.7H450.3C450.2 118.6 420 141.7 380 146.2z" />
    <glyph glyph-name="happy"
      unicode="&#xF15B;"
      horiz-adv-x="450" d=" M225 384.1C102 384.1 1.9 284 1.9 161S102 -62.1 225 -62.1S448.1 38 448.1 161S348 384.1 225 384.1zM225 -35.9C116.4 -35.9 28.1 52.4 28.1 161S116.4 357.9 225 357.9S421.9 269.6 421.9 161S333.6 -35.9 225 -35.9z M156.5 215.8C171 215.8 182.7 227.5 182.7 242S170.9 268.2 156.5 268.2C142 268.2 130.3 256.5 130.3 242C130.2 227.5 142 215.8 156.5 215.8zM293.5 215.8C308 215.8 319.7 227.5 319.7 242S307.9 268.2 293.5 268.2C279 268.2 267.3 256.5 267.3 242S279 215.8 293.5 215.8zM225.2 76.4H225C224.3 76.4 155.2 77 125.1 131.3L102.1 118.6C139.2 51.6 219.8 50.1999999999999 224.8 50.1999999999999H227.4C271.1 50.1999999999999 301.3 68.3999999999999 319 83.8C338.6 100.9 347.6 118.4 348 119.1L324.6 131C324.4000000000001 130.4 295.6 75.3 225.2 76.4z" />
    <glyph glyph-name="help-filled"
      unicode="&#xF15C;"
      horiz-adv-x="450" d=" M399.8 302.5L332.3 234.4L315.2 217.1C325.6 200.4 331.4 181.2 331.4 161.1C331.4 140.4 325.4 120.6 314.4 103.6L331.4 86.5L399.2 18.8C432 58.8 449.8 108.6 449.8 161C449.9000000000001 213.1 432.2 262.5 399.8 302.5zM280.6 70.4C264 60.1 244.9000000000001 54.4 224.9 54.4C204.7000000000001 54.4 185.5 60.2 168.8000000000001 70.6L151.6000000000001 53.4L83.7000000000001 -14.2C123.6000000000001 -46.5000000000001 172.9 -64.1 224.9 -64.1C276.7000000000001 -64.1 325.8000000000001 -46.6 365.6 -14.6L297.9000000000001 53.1L280.6 70.4zM135.1 103.9C113 138.6 113 183.3 135.1 218.1L118.1 235.1L50.5 303.1C-16.6 220.8 -16.7 101.6999999999999 50.2 19.3L118 87L135.1 103.9zM168.7 251.3C185.4 261.8 204.6 267.6 224.9 267.6C245.5 267.6 265 261.6 282 250.8L299 267.9L366.4 335.9C326.4 368.4 277 386 224.9 386C173 386 123.9 368.5 84.1 336.4L151.5 268.5L168.7 251.3z" />
    <glyph glyph-name="help"
      unicode="&#xF15D;"
      horiz-adv-x="450" d=" M384 320.1C341.5 362.6 285 386 224.9 386C164.8 386 108.3 362.6 65.8 320.1C-21.9 232.4 -21.9 89.7 65.8 1.9C108.3 -40.6 164.8 -64 224.9 -64C285 -64 341.5 -40.6 384 1.9C426.5 44.4 449.9 100.9 449.9 161S426.5 277.6 384 320.1zM332.1 87.3C347 108.9 355.2000000000001 134.3 355.2000000000001 161C355.2000000000001 187.8 347.1 213.1999999999999 332.2000000000001 234.7L383.0000000000001 285.5C411.0000000000001 250.2 426.3000000000001 206.7999999999999 426.3000000000001 161S411 71.8 383 36.5L332.1 87.3zM149.5 85.6C129.4 105.7 118.3 132.5 118.3 161C118.3 189.5 129.4 216.2 149.5 236.4C169.7 256.6 196.4 267.6 224.9 267.6C253.4000000000001 267.6 280.2000000000001 256.5 300.3000000000001 236.4C320.5000000000001 216.3 331.5000000000001 189.5 331.5000000000001 161C331.5000000000001 132.6 320.4000000000001 105.8 300.3000000000001 85.6C280.2000000000001 65.4999999999999 253.4000000000001 54.4 224.9000000000001 54.4C196.4000000000001 54.4 169.6000000000001 65.5 149.5000000000001 85.6zM349.4 319L298.6 268.2C277 283.1 251.6 291.2 224.9 291.2C198.1 291.2 172.7 283.1 151.2 268.2L100.4 319C135.8 347 179.1 362.3 224.9 362.3S314.1 347 349.4 319zM66.9 285.5L117.7 234.7C102.8 213.1 94.6 187.7 94.6 161C94.6 134.3 102.7 108.8 117.7 87.3L66.9 36.5C9.4 109.3 9.4 212.7 66.9 285.5zM100.4 3L151.2 53.8C172.8 38.9 198.2 30.8 224.9 30.8C251.6 30.8 277 38.9 298.6 53.8L349.4 3C314.1 -25 270.7 -40.3 224.9 -40.3S135.7 -25 100.4 3z" />
    <glyph glyph-name="home-takeover"
      unicode="&#xF15E;"
      horiz-adv-x="450" d=" M420.7 188.2C420.7 296 332.9 383.8 225 383.8S29.3 296 29.3 188.2C29.3 87.8 105.3 4.8 202.8 -6.2L203.1 -61.8000000000001L271.9000000000001 -1.8000000000001C357.2000000000001 19.1999999999999 420.7000000000001 96.3999999999999 420.7000000000001 188.1999999999999zM267.8 22.5L202.4 80.7L202.7 18.6C118.9 29.6 53.9 101.5 53.9 188.3C53.9 282.6 130.7 359.4 225 359.4S396.1 282.6 396.1 188.3C396.1 108.6 341.5 41.4999999999999 267.8 22.4999999999999z M225.4 347.5L102.4 227V85.7H348.4V227L225.4 347.5zM225.4 313.1L323.4 216.7V202L225.4 298.4L127.4 202V216.7L225.4 313.1zM237.4 109.7H213.4V172.7H237.4V109.7zM262.4 109.7V197.7H188.4V109.7H127.4V167.6L225.4 264L323.4 167.6V109.7H262.4z" />
    <glyph glyph-name="horizontal-bar-chart"
      unicode="&#xF15F;"
      horiz-adv-x="450" d=" M-0.3 70.6H89.7V10.6H-0.3zM-0.3 190.6H239.7V130.6H-0.3zM-0.3 310.6H449.7V250.6H-0.3z" />
    <glyph glyph-name="hotspot"
      unicode="&#xF160;"
      horiz-adv-x="450" d=" M443.3 -23.6L347.8 71.4L402.8 126.5L195 185.4L254.3 -22.1L307.2 30.8L402.6 -64.3000000000001M31.7 261.7H0.7V385.7H125.7V354.7H31.7M125.7 -19.3H0.7V105.7H31.7V12.7H125.7M405.7 261.7H373.7V354.7H280.7V385.7H405.7" />
    <glyph glyph-name="inactive"
      unicode="&#xF161;"
      horiz-adv-x="450" d=" M225 226C260.8 226 290 196.9 290 161C290 125.2 260.8 96 225 96S160 125.2 160 161S189.2 226 225 226M225 251C175.4 251 135 210.8 135 161S175.4 71 225 71C274.7 71 315 111.3 315 161S274.7 251 225 251z" />
    <glyph glyph-name="incomplete"
      unicode="&#xF162;"
      horiz-adv-x="450" d=" M264.7 359.5V280.1H185.3V359.5H264.7M291.2 386H158.8V253.6H291.2000000000001V386zM105.9 359.5V280.1H26.5V359.5H105.9M132.4 386H0V253.6H132.4V386zM423.5 200.7V121.3H344.1V200.7H423.5M450 227.2H317.6V94.8H450V227.2zM264.7 200.7V121.3H185.3V200.7H264.7M291.2 227.2H158.8V94.8H291.2000000000001V227.2zM105.9 200.7V121.3H26.5V200.7H105.9M132.4 227.2H0V94.8H132.4V227.2zM423.5 41.9V-37.5H344.1V41.9H423.5M450 68.4H317.6V-64H450V68.4zM264.7 41.9V-37.5H185.3V41.9H264.7M291.2 68.4H158.8V-64H291.2000000000001V68.4zM105.9 41.9V-37.5H26.5V41.9H105.9M132.4 68.4H0V-64H132.4V68.4z" />
    <glyph glyph-name="info-filled"
      unicode="&#xF163;"
      horiz-adv-x="450" d=" M225 387.3L0.7 163L225 -61.3L449.3 163L225 387.3zM241 87H214V196H241V87zM214 224V251H241V224H214z" />
    <glyph glyph-name="info"
      unicode="&#xF164;"
      horiz-adv-x="450" d=" M225 385.3L0.7 161L225 -63.3L449.3 161L225 385.3zM39.3 161L225 346.7L410.7 161L225 -24.7L39.3 161z M212 249H239V222H212zM212 194H239V85H212z" />
    <glyph glyph-name="insights-filled"
      unicode="&#xF165;"
      horiz-adv-x="450" d=" M200 -30H250V-64H200zM102.6 311.9L47.5 368.6L65.5 386L120.5 329.2M39.6 59.1L26.8 80.5L92.7 119.7L105.4 98.2M3 235H75V210H3zM347.4 311.9L329.5 329.2L384.5 386L402.5 368.6M410.4 59.1L344.6 98.2000000000001L357.3 119.7000000000001L423.2 80.5000000000001M375 235H447V210H375zM306.5 277.6C292.7 292.1 267.3 309.3 225 309.3S157.4 292.1 143.5 277.6C125.7 258.9 116.1 233.4 117.3 207.4C118.6 177.3 135.9 150.2 149.8 128.5C156.8 117.6 163.3 107.3 166 99.5C175.4 72.1 175.3 55.8 175.2 28.8V-39.7L274.7 -39.5V28.8C274.6 55.8 274.6 72.1 283.9 99.5C286.6 107.3 293.2 117.6 300.1 128.5C314 150.3 331.3 177.4 332.6 207.4C333.9 233.4 324.3 259 306.5 277.6zM258 7H188V32H258V7z" />
    <glyph glyph-name="insights"
      unicode="&#xF166;"
      horiz-adv-x="450" d=" M200 -30H250V-64H200zM102.6 311.9L47.5 368.6L65.5 386L120.5 329.2M39.6 59.1L26.8 80.5L92.7 119.7L105.4 98.2M3 235H75V210H3zM347.4 311.9L329.5 329.2L384.5 386L402.5 368.6M410.4 59.1L344.6 98.2000000000001L357.3 119.7000000000001L423.2 80.5000000000001M375 235H447V210H375zM306.5 277.6C292.7 292.1 267.3 309.3 225 309.3S157.4 292.1 143.5 277.6C125.7 258.9 116.1 233.4 117.3 207.4C118.6 177.3 135.9 150.2 149.8 128.5C156.8 117.6 163.3 107.3 166 99.5C175.4 72.1 175.3 55.8 175.2 28.8V-39.7L274.7 -39.5V28.8C274.6 55.8 274.6 72.1 283.9 99.5C286.6 107.3 293.2 117.6 300.1 128.5C314 150.3 331.3 177.4 332.6 207.4C333.9 233.4 324.3 259 306.5 277.6zM200.2 -14.7V7H249.8V-14.6L200.2 -14.7zM307.8 208.6C306.8 185.2 292.1 162.2 279.1 142C271.3 129.8 264 118.3 260.3 107.6C250 77.5 249.6 58.8 249.7 32H200.2C200.3 58.8 199.9 77.5 189.6 107.6C185.9 118.3 178.6 129.8 170.8 142C157.9 162.3000000000001 143.2 185.2000000000001 142.2 208.6C141.3 227.8 148.4 246.7 161.5 260.4000000000001C176.5 276.1 198.5 284.4000000000001 224.9 284.4000000000001C251.4 284.4000000000001 273.3 276.1 288.3 260.4000000000001C301.6 246.6 308.6 227.8 307.8 208.6z" />
    <glyph glyph-name="intergrate"
      unicode="&#xF167;"
      horiz-adv-x="450" d=" M145.8 226.9C145.8 202 177.2 183.2 218.8 183.2S291.8 202 291.8 226.9C291.8 240.4 282.9000000000001 252.3 266.8 260.4C253.8 267 236.7 270.6 218.8 270.6S183.8 267 170.8 260.4C154.7 252.3 145.8 240.4 145.8 226.9zM218.8 242.4C248.3 242.4 263.7 230.8 263.7 226.9S248.3 211.3 218.8 211.3S173.9 222.9 173.9 226.9S189.4 242.4 218.8 242.4z M402.1 276.9C402.6 278.9 402.8 281 402.8 283.2C402.8 295.9 394.5 307.1 379.5 314.7C367.5 320.7 351.9 324 335.6 324C325 324 314.8 322.6 305.6 320L280.3 329.8C280.4000000000001 330.6 280.4000000000001 331.3 280.4000000000001 332C280.4000000000001 338.8 277.4000000000001 351.6 257.3 360.5C246 365.3 231.4 368 216.1 368C200.8 368 186.2 365.3 175 360.4C154.9 351.6 151.9 338.8 151.9 331.9C151.9 330.4 152 328.6 152.5 326.6L127.8 315.2C127.6 315.1 127.3 315 127.1 314.8C117.8 317.6 107.2 319.1 96.3 319.1C80.1 319.1 64.6 315.8 52.7 309.9C37.7 302.4 29.5 291.3 29.5 278.6C29.5 274.4 30.4 270.3 32.2 266.5L0 250.4V69.2000000000001L239.6 -46L450 74.6V257.5L402.1 276.9zM374.7000000000001 283.2C374.0000000000001 280.2 360.7000000000001 270.5 335.6 270.5S297.2000000000001 280.1 296.5 283.2C296.9 284.9 300.9 288.4 308.5 291.4C309.5 291.6 310.4 292 311.3 292.4C317.5 294.4 325.6 295.9 335.6 295.9C361 295.8 373.9000000000001 286.3 374.7000000000001 283.2zM263.4 306.6C264.3 305.9 265.4 305.3 266.5 304.9L274.9 301.7C270.6 296.2 268.3 289.9 268.3 283.3C268.3 270.6 276.6 259.4 291.6 251.8C303.6 245.8 319.2 242.5 335.5 242.5C351.8999999999999 242.5 367.5 245.8 379.3999999999999 251.8C381.0999999999999 252.6 382.5999999999999 253.5 384.0999999999999 254.5C384.9999999999999 253.9 385.8999999999999 253.3 386.9999999999999 252.9L399.2999999999999 247.9L236.6999999999999 156.9L42.6999999999999 240.6L54.5999999999999 246.5C66.1999999999999 241.1 80.8999999999999 238.2 96.2999999999999 238.2C112.4999999999999 238.2 127.9999999999999 241.5 139.8999999999999 247.4C154.8999999999999 254.9 163.0999999999999 266 163.0999999999999 278.7C163.0999999999999 285.5 160.6999999999999 291.9 156.1999999999999 297.5L171.8999999999999 304.7C171.9999999999999 304.8 172.0999999999999 304.8 172.2999999999999 304.9C183.7999999999999 299.2 199.4999999999999 296 216.1999999999999 296C231.4999999999999 296 246.0999999999999 298.7 257.2999999999999 303.5999999999999C259.4999999999999 304.5 261.5999999999999 305.5 263.3999999999999 306.5999999999999zM216.1 339.9C234.3 339.9 246.4 335.1 250.9 331.9C246.4 328.7 234.4 324 216.1 324C199.9 324 188.1 327.7 182.5 331.2C182.1 331.5 181.7 331.7 181.3 332C185.8 335.1 197.9 339.9 216.1 339.9zM96.4 291C121.2 291 134.1 281.7 135 278.6C134.1 275.5 121.3 266.2 96.4 266.2C71.5 266.2 58.6 275.5 57.8 278.6C58.6 281.7 71.5 291 96.4 291zM28 216.4L226 131V-8.4L28 86.8V216.4zM254 -5.5V134.2L422 228.2V90.8L254 -5.5000000000001z" />
    <glyph glyph-name="inventory"
      unicode="&#xF168;"
      horiz-adv-x="450" d=" M-0.3 381.6V-60.1H450.4V382.1L-0.3 381.6zM415.7 -25.4H34.3V347L415.6 347.4V-25.4z M242.3 109H381V74.3H242.3zM242.3 39.7H381V5H242.3zM69 247.7H207.7V213H69zM69 317H207.7V282.3H69zM225 317H381V161H225zM69 161H225V5H69z" />
    <glyph glyph-name="jpn"
      unicode="&#xF169;"
      horiz-adv-x="450" d=" M400.1 368.4L376.1 386L225 178.9L73.9 386L49.9 368.4L191.6 174H89.9V145H209.9V114H89.9V85H209.9V-64H238.9V85H358.9V114H238.9V145H358.9V174H258.4" />
    <glyph glyph-name="kindred"
      unicode="&#xF16A;"
      horiz-adv-x="450" d=" M365.3 159.5C410.9000000000001 203.1 434.5 252.9 418.2 277.4C410.6 288.8 380.1 304.1 295.2 281.6C280.2 342.8 254.2 386 224.7 386S169.4 344 154.4 282.7C128.4 290.3 104.8 293.5 85.1 293.5C58.9 293.5 39.6 286.1 31.2 271.6C16.5 246.2 38.5 203.3 84.1 159.7C38.5 116.2 16.4 73.4 31.2 47.9C39.6 33.4 58.9 26.4 85.1 26.4C104.8 26.4 128.5 30.3 154.4 37.9C169.3 -23.4 195.2 -63.9 224.7 -63.9S280 -23.5 295 37.7C321 30.1 344.7 26.2 364.3 26.2C390.5 26.2 409.8 33.1 418.2 47.7C432.9 73.2 410.8 115.9 365.3 159.5zM85.1 47.2C66.7 47.2 53.3 51.3 49.3 58.2C46.1 63.7 47.9 72.1 50 78.1C53.8 89.7 62.3 103.7 74.4 118.4C81.7 127.3 90.2 136.3 99.7 145.3C112.7 134 127.1 122.9 142.8 112C144.4 93 146.8 75 150 58.1C125.5 51 103.2 47.2 85.1 47.2zM141.3 138.9C132.2 145.6 123.5 152.5 115.4 159.4C123.6 166.3 132.2 173.2 141.3 179.9C141.1 173.1 140.9 166.3 140.9 159.4S141 145.7 141.3 138.9zM142.8 206.8C127.1 196 112.7 184.8 99.7 173.6C90.2 182.6 81.7 191.6 74.4 200.5C62.3 215.3 53.8 229.2 50 240.8C48 246.9 46.2 255.3 49.4 260.7C53.4 267.6 66.8 271.7 85.2 271.7C103.3 271.7 125.6 267.9 150.1 260.6C146.8 243.8 144.3 225.7 142.8 206.8zM284.2000000000001 221.5C278.4000000000001 225 272.6 228.6 266.6 232C260.6 235.5 254.7 238.8 248.7 241.9C259.1 246.4 269.3 250.5 279.4000000000001 254.1C281.3 243.6 282.9000000000001 232.7 284.2000000000001 221.5zM185.1000000000001 310.1C191.7000000000001 327.9 199.6000000000001 342.2 207.8000000000001 351.4C212 356.2 218.4 362 224.7 362C231 362 237.4 356.3 241.7 351.5C249.8 342.3 257.7 328 264.4 310.2C268.4 299.3 272 287.5 275 274.9C258.8 269.2 241.9 262.3 224.7 254.1C207.5 262.3 190.6 269.2 174.4 274.9C177.5 287.4 181 299.3 185.1 310.1zM170.1000000000001 254.1C180.1000000000001 250.6 190.4000000000001 246.5 200.7000000000001 241.9C194.7000000000001 238.8 188.8000000000001 235.5 182.8000000000001 232C176.8000000000001 228.6 171 225 165.3000000000001 221.5C166.5 232.7 168.1000000000001 243.6 170.1000000000001 254.1zM165.3000000000001 97.5C171 93.9 176.8000000000001 90.4 182.8000000000001 86.9S194.7000000000001 80.1 200.7000000000001 76.9C190.3000000000001 72.4 180.1000000000001 68.3 170.1000000000001 64.7C168.1000000000001 75.3 166.5000000000001 86.2 165.3000000000001 97.5zM264.4000000000001 8.8C257.7000000000001 -9.1 249.8000000000001 -23.4 241.7000000000001 -32.6C237.4000000000001 -37.4 231.1000000000001 -43.1 224.7000000000001 -43.1C218.4 -43.1 212.0000000000001 -37.3 207.8000000000001 -32.6C199.6000000000001 -23.4 191.7000000000001 -9.1 185.1000000000001 8.8C181.0000000000001 19.6 177.5000000000001 31.5 174.4000000000001 44.1C190.6000000000001 49.8 207.5000000000001 56.7000000000001 224.7000000000001 64.9C241.9000000000001 56.7000000000001 258.8000000000001 49.8 275.0000000000001 44.1C271.9000000000001 31.5 268.4000000000001 19.7 264.4000000000001 8.8zM279.4000000000001 64.8C269.4000000000001 68.4 259.1 72.4 248.7000000000001 77C254.6000000000001 80.2 260.6 83.5 266.6 87C272.6 90.4 278.4000000000001 94 284.2000000000001 97.6C282.9000000000001 86.2000000000001 281.3000000000001 75.3 279.4000000000001 64.8zM286.4000000000001 123.8C276.7000000000001 117.3 266.6 111 256.1 105C245.7 99 235.2 93.4 224.7 88.1C214.2 93.3 203.7 99 193.3 105C182.8 111 172.7 117.3 162.9 123.8C162.2 135.4 161.8 147.4 161.8 159.4C161.8 171.5 162.2 183.4 162.9 195.1C172.7 201.5 182.8 207.8 193.3 213.9C203.7 219.9 214.2 225.5000000000001 224.7 230.8000000000001C235.2 225.6000000000001 245.8 219.9 256.1 213.9C266.6 207.8000000000001 276.7000000000001 201.6 286.4000000000001 195.1C287.1 183.4 287.5000000000001 171.5 287.5000000000001 159.4C287.5000000000001 147.4 287.1000000000001 135.5 286.4000000000001 123.8zM364.3000000000001 271.8C382.7000000000001 271.8 396.1000000000001 267.7000000000001 400.1000000000001 260.8C403.3000000000001 255.3 401.5000000000001 247 399.4000000000001 240.9C395.6000000000001 229.3 387.1000000000001 215.3 375.0000000000001 200.6C367.7000000000001 191.7 359.2000000000001 182.7 349.8000000000002 173.7C336.8000000000002 184.9 322.4000000000002 196.1 306.7000000000001 206.9C305.1000000000001 225.9000000000001 302.7000000000001 244.0000000000001 299.5000000000001 260.8000000000001C324.0000000000001 268.0000000000001 346.2000000000001 271.8000000000001 364.3000000000002 271.8000000000001zM308.2 180C317.3 173.3 326 166.4 334 159.5C325.9 152.6 317.3 145.7 308.1 139C308.4000000000001 145.8 308.5 152.6 308.5 159.5S308.4 173.2 308.2 180zM399.4 78.1C401.4 72 403.2 63.6 400.1 58.2000000000001C396.1 51.3000000000001 382.8 47.2 364.3 47.2C346.2 47.2 323.9 51.0000000000001 299.4 58.3000000000001C302.6 75.1000000000001 305 93.2000000000001 306.5 112.2000000000001C322.2 123.1 336.6 134.2000000000001 349.7 145.5000000000001C359.1 136.5000000000001 367.6 127.5000000000001 374.9 118.6000000000001C387.1 103.7000000000001 395.6 89.8000000000001 399.4 78.1000000000001z" />
    <glyph glyph-name="line-chart"
      unicode="&#xF16B;"
      horiz-adv-x="450" d=" M30 355H0V-33H448V-3H30 M121.7 38C121.8 38 121.8 38 121.7 38H121.8C148.9 38 170.8 60 170.8 87.1C170.8 97.1 167.8 106.4 162.6 114.2000000000001L200.8 161.8000000000001C206.6 159.3000000000001 213.1 158 219.8 158C225.8 158 231.6 159.1 236.9 161L275.2 113.9C270.2 106.2000000000001 267.2 97.0000000000001 267.2 87.1C267.2 60 289.2 38 316.3 38.1C343.4000000000001 38.1 365.3 60 365.3 87.2000000000001C365.3 98.3000000000001 361.6 108.6 355.3 116.8000000000001L386.5 161.1000000000001C391 159.8000000000001 395.7 159.0000000000001 400.6 159.0000000000001H400.8C427.9000000000001 159.0000000000001 449.8 180.6000000000001 449.8 207.7000000000001C449.8 234.7000000000001 427.9000000000001 256.4000000000001 400.8 256.4000000000001S351.7 234.8000000000001 351.7 207.7000000000001C351.7 196.4000000000001 355.5 186.1000000000001 361.9 177.9000000000001L330.9 134.0000000000001C326.3 135.5000000000001 321.3 136.3000000000001 316.2 136.3000000000001C309.8 136.3000000000001 303.8 135.1000000000001 298.2 132.9000000000001L260.2 179.5000000000001C265.6 187.4000000000001 268.7 196.9000000000001 268.7 207.1000000000001C268.7 234.1000000000001 246.8 256.1000000000001 219.7 256.1000000000001S170.6 234.1000000000001 170.6 207.0000000000001C170.6 197.5000000000001 173.3 188.7000000000001 178 181.1000000000001L139.2 132.9000000000001C133.7 135.0000000000001 127.8 136.2000000000001 121.5 136.2000000000001C94.4 136.2000000000001 72.4 114.2000000000001 72.4 87.1000000000001C72.7 60.0000000000001 94.7 38.0000000000001 121.7 38.0000000000001zM401 231.8C414.5 231.8 425.4 220.9 425.4 207.4C425.4 193.9 414.5 183 401 183C387.5 183 376.6 193.9 376.6 207.4C376.5 220.9 387.5 231.8 401 231.8zM121.8 111.6C135.3 111.6 146.2 100.8 146.2 87.3S135.3 63 121.8 63H121.7C108.2 63 97.3 73.8 97.3 87.3S108.3 111.6 121.8 111.6z" />
    <glyph glyph-name="link"
      unicode="&#xF16C;"
      horiz-adv-x="450" d=" M250.4 73.9C221.6 73.9 192.8 84.9 170.8 106.8L143.3 134.4L163.2 154.3L190.7 126.6999999999999C223.6 93.8 277.2000000000001 93.8 310.1 126.6999999999999L397.1 213.7999999999999C413 229.7 421.8 250.8999999999999 421.8 273.5C421.8 296 413 317.3 397.1 333.2C381.1 349.2 359.9000000000001 358 337.4000000000001 358S293.7000000000001 349.0999999999999 277.8 333.2L213.9 269.3L194 289.2L257.9 353C279.1 374.2 307.4 386 337.4 386C367.5 386 395.7 374.3 417 353C438.2 331.8 450 303.5 450 273.5C450 243.4 438.3 215.2 417 193.9L330 106.8C308 84.9 279.2 73.9 250.4 73.9z M112.5 -64C82.5 -64 54.2 -52.3 32.9 -31C11.7 -9.8 -0.1 18.5 -0.1 48.5C-0.1 78.6 11.6 106.9 32.9 128.1L120 215.1C141.2 236.3 169.5 248.0000000000001 199.6 248.0000000000001C229.7 248.0000000000001 257.9 236.3000000000001 279.1 215.1L302.2000000000001 191.9L282.2000000000001 172.1L259.1 195.3C226.3 228.1 172.7 228.1 139.8 195.3L52.7 108.2000000000001C36.7 92.3000000000001 27.9 71.1 27.9 48.5000000000001C27.9 26.0000000000001 36.7 4.8000000000001 52.7 -11.1999999999999S89.9 -36 112.4 -36C135 -36 156.1 -27.1 172 -11.2L235.9 52.6L255.8 32.7L192.1 -30.9999999999999C170.9 -52.3 142.6 -63.9999999999999 112.5 -63.9999999999999C112.6 -63.9999999999999 112.6 -63.9999999999999 112.5 -63.9999999999999z" />
    <glyph glyph-name="loading"
      unicode="&#xF16D;"
      horiz-adv-x="450" d=" M365.6 325.8L348.3 305C392.7 268.1 418.2000000000001 213.9 418.2000000000001 156.3C418.2 49.7 331.5 -37 225 -37C118.5 -37 31.8 49.7 31.8 156.2C31.8 214.2 57.8 267.9 100.9 304.1L172 233V386H19L81.6 323.4C33.6 282.2 4.7 221.5 4.7 156.2C4.7 34.8 103.5 -64 225 -64C346.5 -64 445.2 34.8 445.2 156.2C445.3 222 416.2 283.8 365.6 325.8z" />
    <glyph glyph-name="lock"
      unicode="&#xF16E;"
      horiz-adv-x="450" d=" M356 228V256.6C356 291.1 342 323.7 316.8 348.2C291.9 372.6 258.9 386 224.3 386S156.9 372.6 132 348.2C106.9 323.6 93 291.1 93 256.6V228H35V-64H415V228H356zM122 256.6C122 283.3 132.8 308.4 152.3 327.5C171.8 346.5 197.4 357 224.4 357C251.4 357 277.1 346.5 296.6 327.5C316.1 308.4 327 283.2 327 256.6V228H122V256.6zM386 -35H64V199H386V-35z M210 141H239V24H210z" />
    <glyph glyph-name="logout"
      unicode="&#xF16F;"
      horiz-adv-x="450" d=" M291 29H26V293H291V320H0V2H291 M159 135V187H344V266.9L449.9 161L344 55.1V135" />
    <glyph glyph-name="magazine"
      unicode="&#xF170;"
      horiz-adv-x="450" d=" M250.3 354.7L224.1 329.6L196.5 354.7H0V13.5L20.4 -10.3H192.1L224.3 -36.2L257 -10.3H430.1L450 15.3V354.7H250.3zM33.3 17.7L28 23.9V326.7H185.7L211 303.7V10.5L202 17.7H33.3zM422 24.8L416.4 17.6H247.2L239 11.1V305L261.6 326.6H422V24.8z" />
    <glyph glyph-name="mail-filled"
      unicode="&#xF171;"
      horiz-adv-x="450" d=" M269.5 118.6C260.2 113.4 249.8 110.8 239.4 110.8C229.1 110.8 218.8 113.3 209.7 118.5L158.9 146.4L0.1 47.1H0V-7H450V70.6L316.3 145.3L269.5 118.6zM0 233.8V82.4L128.8 162.9M450 105V221.7L346.6 162.7M0 329V267.9L224.2 144.6C233.9 139.3 245.2 139.3 254.7 144.6L450 256.2V329H0z" />
    <glyph glyph-name="mail"
      unicode="&#xF172;"
      horiz-adv-x="450" d=" M0 330V-8H450V330H0zM420 300V244.9L241.7 144.9C232.2 139.6 220.8 139.5 211.3 144.9L30 245.7V300H420zM420 210.5V115.8L334.7 162.7L420 210.5zM115.6 163.7L30 112.6V211.3L115.6 163.7zM30 22V77.7L145.9 146.9L196.7 118.7C205.9 113.6 216.2 111 226.5 111S247.2 113.6 256.4 118.8L303.9 145.4L420 81.5V22H30z" />
    <glyph glyph-name="male"
      unicode="&#xF173;"
      horiz-adv-x="450" d=" M297.8 372L363.9 306.1L288.7 231C258.3 263.1 215.2 283.3 167.5 283.3C75.5 283.3 0.6 208.5 0.6 116.5C0.6 24.5 75.5 -50.4 167.5 -50.4S334.4 24.5 334.4 116.5C334.4 151.2 323.7 183.5 305.5 210.2L382.8 287.5L448.9 221.4V372H297.8zM167.5 -23.7C90.2 -23.7 27.3 39.2 27.3 116.5C27.3 193.8 90.2 256.6 167.5 256.6C244.8 256.6 307.7 193.7 307.7 116.5C307.7 39.2 244.8 -23.7 167.5 -23.7z" />
    <glyph glyph-name="man"
      unicode="&#xF174;"
      horiz-adv-x="450" d=" M224.6 289C251.1 289 272.6 310.5 272.6 337S251.1 385 224.6 385S176.6 363.5 176.6 337C176.7 310.5 198.2 289 224.6 289zM294.4 288.3S164.4 289 153 288.2C140.2 287.3 130 274.9 130 260.6V143C130 126.7 143 113.6 158 113.6V229H170V-40.9C170 -53 179.8 -63 191 -63S212 -53 212 -40.9V110H239V-40.9C239 -53 247.8 -63 259 -63S279 -53 279 -40.9V229H293V113.6C308 113.6 320 126.8 320 143V260.6C320 276.8 309.3 288.3 294.4 288.3z" />
    <glyph glyph-name="marker-filled"
      unicode="&#xF175;"
      horiz-adv-x="450" d=" M225 386C142.4 386 75.4 319.1 75.4 236.4C75.4 213.1 80.7 196.3 90.2 174.7L224.9 -64S358.4 172 358.9 172.9C370.3 194.1 374.7 213.4 374.7 236.4C374.6 319.1 307.7 386 225 386zM225 186.4C197.4 186.4 175 208.8 175 236.4S197.4 286.4 225 286.4C252.7 286.4 275 264 275 236.4S252.7 186.4 225 186.4z" />
    <glyph glyph-name="marker"
      unicode="&#xF176;"
      horiz-adv-x="450" d=" M225 356C257 356 287 343.6 309.6 321C332.2000000000001 298.4 344.6 268.4 344.6 236.4C344.6 217.6 341.1 203.3 332.6 187.3L224.9 -3L117.1 188.1C109.4 206 105.4 218.6 105.4 236.4C105.4 268.3 117.8 298.4 140.4 321C163 343.6 193.1 356 225 356M225 386C142.4 386 75.4 319.1 75.4 236.4C75.4 213.1 80.7 196.3 90.2 174.7L224.9 -64S358.4 172 358.9 172.9C370.3 194.1 374.7 213.4 374.7 236.4C374.6 319.1 307.7 386 225 386z M225 186.4C197.4 186.4 175 208.8 175 236.4S197.4 286.4 225 286.4C252.7 286.4 275 264 275 236.4S252.7 186.4 225 186.4z" />
    <glyph glyph-name="mobile"
      unicode="&#xF177;"
      horiz-adv-x="450" d=" M100 386V-64H360V386H100zM230 -27.2C216.9 -27.2 206.3 -16.6 206.3 -3.5S216.9 20.2 230 20.2S253.7 9.6 253.7 -3.5S243.1 -27.2 230 -27.2zM337 54H123V362H337V54z" />
    <glyph glyph-name="money"
      unicode="&#xF178;"
      horiz-adv-x="450" d=" M283.1 213C188 238 122.6 203.4 122.6 203.4L115.7 223.8C201.7 262.2000000000001 287.5 231.7 287.5 231.7L283.1 213z M211.7 281.1C243.5 281.1 278.6 273.9 316.2 259.6L326.8 255.6L337.2 260L353.4 266.9C353.5 264.5 353.7 262 353.9 259.4C355.9 238.2 363 218.6 375 201.3C385.8 185.8 400.4 172.3 418.6 161.1L413 131C397.9 129.2 378.6 124.7 360.1 113.9C339.8 102 315.6 79.4 306.2000000000001 37.7L284.0000000000001 37.9L274.0000000000001 56.3L266.0000000000001 71.1H171.0000000000001L163.8000000000001 53.3L157.7000000000001 38.1H126C121.5 42.1 115 48.4 107.9 56.7C85.5 82.9 76.2 107.6 72.3 123.8C68.3 140.3 62.9 158.4 57 175.2L70.6 204.3C71.3 205.7 81.4 224.8 103.2 243.4C132.6 268.4 169.1 281.1 211.7 281.1M389 312.7L326.2 286C282.2 302.7 244.2 309.3 211.7 309.3C89.9 309.3 45.2 216.5 45.2 216.5L20.1 234.1L0 223.4C12.6 218.2 34.3 161.1 44.9 117C61.2 49.9 115.9 9.9 115.9 9.9H176.5L189.8 41.9H249.2L267.2000000000001 9.7L330.4000000000001 9.3C335.7000000000001 97.2000000000001 408.4000000000001 103.8 430.2000000000001 103.8C434.1 103.8 436.3000000000001 103.6 436.3000000000001 103.6L449.9000000000001 176C349.6 223.4 389 312.7 389 312.7z" />
    <glyph glyph-name="multi-donut-chart"
      unicode="&#xF179;"
      horiz-adv-x="450" d=" M211.7 338.2V385.3C129.7 380.7 60 332.3 24.6 263.1L67.6 244C95.5 296.8 149.7 333.7 211.7 338.2zM239.7 -16.1V-63.2C319.7 -57.9 387.9 -11.2 423.5 55.8L380.2 75C352.1 24.4 300.7 -11 239.7 -16.1zM449.4 172.6C445.2 253.6 398.2 323.4 330.4 359.6C322.2 364 313.4 367.7 304.6 371.1C284.2 378.9 262.6 383.7 239.6 385.2V338.1C255.6 336.8 271 333.2 285.4 328C294.3 324.8 302.9 321 311.1 316.4C362.5 287.8 398.1 234.5 402.2 172.6C402.3999999999999 168.7 402.8 164.9 402.8 161C402.8 155.5 402.5 150 402 144.6C400.6 129.2 397.1 114.5 392 100.4999999999999L435.2 81.3999999999999C442.8 101.2999999999999 447.5999999999999 122.5 449.2 144.5999999999999C449.5999999999999 150.0999999999999 450 155.4999999999999 450 160.9999999999999C450 164.8999999999999 449.6 168.7999999999999 449.3999999999999 172.5999999999999zM167.7 -7.3C158.8 -4.3 150.2 -0.6 142 3.7C90.2 31.1 53.5 83.4 47.9 144.5C47.4 149.9 47.1 155.4 47.1 160.9C47.1 164.8 47.4 168.7 47.7 172.5C48.7 188.4 51.8 203.7 56.7 218.1L13.6 237.2C6.2 216.8 1.7 195.1 0.6 172.4C0.4 168.8 0 164.9 0 161C0 155.4 0.4 150 0.8 144.6C6.7 64.3 54.8 -4.4 123 -39.3000000000001C131.3 -43.5000000000001 139.7 -47.2 148.5 -50.4000000000001C168.4 -57.6000000000001 189.6 -62.0000000000001 211.6 -63.3000000000001V-16.2C196.7 -15.1 181.7 -12.1 167.7 -7.3000000000001z M168 228.8L142.4 272.1C107.2 246.4 84.4 204.9 84.4 158.1C84.4 142.9 86.8 128.2000000000001 91.3 114.4L137.5 134.6C135.5 142.1 134.4 150 134.4 158.1C134.4 186.6 147.5 212.1 168 228.8zM360.1 201.2C357.2000000000001 210.3 353.4000000000001 218.9 348.8 227.1C324.6 270.2 278.4 299.3 225.6 299.3C204.2 299.3 183.8 294.5 165.6 285.9L191.2 242.6C201.8 246.9 213.4 249.3 225.6 249.3C258 249.3 286.4000000000001 232.4 302.6 206.9C307.6 199 311.5 190.4 313.9000000000001 181C314.9000000000001 177.2 315.6 173.6 316.1 169.6H366.3C365.5 180.6 363.4000000000001 191.1 360.1 201.2zM315.3 141.6C311.3 119.6 299.5 100.7 283 87.3C276 81.6 268.2 77 259.8 73.5C249.2 69.2 237.7 66.8 225.6 66.8C193.5 66.8 165.2 83.5 149 108.6L102.8 88.4C127.1 45.7 173.1 16.8000000000001 225.6 16.8000000000001C247.0000000000001 16.8000000000001 267.2000000000001 21.6000000000001 285.4000000000001 30.1000000000001C293.6 33.9000000000001 301.4000000000001 38.6000000000001 308.6 43.9000000000001C339.6 66.5000000000001 361.1 101.5000000000001 365.8 141.5000000000001H315.3z" />
    <glyph glyph-name="multi-line-chart"
      unicode="&#xF17A;"
      horiz-adv-x="450" d=" M450 215.2L434.1 245.5L386.7000000000001 220.5L336.9000000000001 298.8L251 191.6L166.3 288.9L81.5 225.6L25.2 287.1L0 264L77.1 179.6L161.3 242.5L252.1 138.2L333.7000000000001 240.1L356.3000000000001 204.6L312.9000000000001 181.7L245.4000000000001 79.5L153.2000000000001 185.1L78.2000000000001 129.6H0.7V95.6H89.4L148.1 139L249.2 23.1L336.6 155.4L374.7000000000001 175.6L415.5000000000001 111.4L444.4000000000001 129.8L405.1 191.6" />
    <glyph glyph-name="native"
      unicode="&#xF17B;"
      horiz-adv-x="450" d=" M0 74.6V31.7H258V289.7H0V74.6zM17 272.7000000000001H241V48.7H180.3L72 153.8L17 93.6V272.7z M171.3 175.9C191.2 175.9 207.4 192.4 207.4 212.8C207.4 233.1 191.3 249.6 171.3 249.6S135.2 233.1 135.2 212.8C135.3 192.4 151.4 175.9 171.3 175.9zM319 289.7H450V259.7H319zM319 173.7H450V143.7H319zM318 61.7H450V31.7H318z" />
    <glyph glyph-name="navigation"
      unicode="&#xF17C;"
      horiz-adv-x="450" d=" M50 305.1H400V263.9H50zM50 181.6H400V140.4H50zM50 58.1H400V16.9H50z" />
    <glyph glyph-name="packages"
      unicode="&#xF17D;"
      horiz-adv-x="450" d=" M224.5 386L30 273.5V48.5L224.5 -64L419 48.5V273.5L224.5 386zM385 266.9L318.2 228.3L157.7 321L224.5 359.5L385 266.9zM224.5 174.2L64 266.9L134.8 307.8L295.3 215.1L224.5 174.2zM53 247L213 154.4V-30.9L53 61.7V247zM236 -30.9V154.4L396 247V61.7L236 -30.9z" />
    <glyph glyph-name="phone-android"
      unicode="&#xF17E;"
      horiz-adv-x="450" d=" M109 161.2C109 220 109.3 278.8 109.2 337.6C109.2 352 113.9 364.3 124.6 374C131.3 380.1 139.2 384 148.2 385.2C151.1 385.6 154 385.9 156.9 385.9C202.3 386 247.7 385.9 293.1 385.9C308.7000000000001 385.9 321.5 380.1 331.1 367.6C337.5 359.3 340.5 349.7 340.5 339.2V64.6C340.5 37.4 340.6 10.1 340.5 -17.1C340.5 -33.3 333.9 -46.2 320.7 -55.7C315.1 -59.8000000000001 308.8 -62.5000000000001 301.8 -63.3000000000001C298.3 -63.7 294.8 -64.1000000000001 291.4000000000001 -64.1000000000001C246.6 -64.2000000000001 201.8000000000001 -64.2000000000001 157 -64.1000000000001C136.9 -64.0000000000001 122.3 -54.9000000000001 113.5 -36.7000000000001C111 -31.6000000000001 109.7 -26.2000000000001 109.6 -20.6000000000001C109.4 -6.2000000000001 109.2 8.1999999999999 109.2 22.6999999999999C109.2 56.4999999999999 109 90.3999999999999 109 124.1999999999999V161.1999999999999zM121 -6H325.3C328.1 -6 328 -6 328 -3.1V-2.4V156V337.5C328 340.4 328.1 340.4 325.3 340.4H123.3C122.5 340.4 122 340.3 121 340.3V-6zM224.6 -28.8H207.9C207 -28.8 206.1 -28.9 205.3 -29.2C202.5 -30.2 201.2 -32.7 201.7 -35.7C202.1 -38.3 204.4 -40.2 207.4 -40.2H241.2C245.2 -40.2 247.5 -38.1 247.6 -34.6C247.6 -31.1 245.3 -28.9 241.3 -28.9C235.7 -28.8 230.1 -28.8 224.6 -28.8zM225 363.1C219 363.1 213.2 363.2 207.3 363.1C203.9 363 201.5 360.5 201.6 357.1C201.7 354 204 351.7 207.3 351.7H241.7C245.0000000000001 351.7 247.4 354.1 247.4 357.3C247.4 360.6 245.1 363 241.6 363C236.2 363.1 230 363.1 225 363.1zM276.6 357.7C279.8 357.7 282.3 360.3 282.3 363.5C282.2 366.5 279.4000000000001 369.2 276.4000000000001 369.2C273.3 369.1 270.7000000000001 366.5 270.8 363.3C270.8 360.2 273.4000000000001 357.7 276.6 357.7z M243.8 126.4V111C243.8 107.6 241.4 104.7 238.2 104.1C234.7 103.5 231.3 105.3 230.2 108.6C229.9 109.5 229.9 110.5 229.9 111.5C229.9 116 230 120.5 230 124.9V126.1H220V111.4C220 107.1 217.2 104.1 213.1 104.1C209 104.1 206 107.2 206 111.4V125V126.6H201.3C197.5 126.7000000000001 194.5 128.8 193.6 132.3C193.4 133.1 193.3 134 193.3 134.9V178.8C193.3 179.9 193.6 180.2 194.7 180.2H255.3C256.4000000000001 180.2 256.7 179.9 256.7 178.8V135.1C256.7 131.3 254.9 128.3 251.7 127.2000000000001C250.3 126.7000000000001 248.7 126.8000000000001 247.2 126.6C246.1 126.3 245 126.4 243.8 126.4zM209.4 207.8C208 210.4 206.6 212.9 205.2 215.4C205.1 215.5 205 215.7 204.9 215.8C204.6 216.5 203.8 217.3 204.9 217.9C205.9 218.4 206.3 217.5 206.7 216.8C208.2 214.1 209.6 211.4 211.2 208.6C220.4 212.3 229.5000000000001 212.4 238.8 208.6C239.6 210 240.4 211.5 241.2 212.9C242.0000000000001 214.3000000000001 242.7 215.7000000000001 243.5000000000001 217.1C243.9000000000001 217.8 244.4000000000001 218.2 245.1 217.8C245.9000000000001 217.4 245.6 216.8 245.2 216.2C243.7 213.4 242.2 210.7 240.6 207.7C241.0000000000001 207.4 241.4000000000001 207.2 241.8 206.9C248.3 203 253.1 197.7 255.3 190.4C256 188.1 256.2 185.7 256.6 183.3C256.8 182.4 256.4000000000001 182.1 255.5000000000001 182.1H194.4C193.2000000000001 182.1 193.1 182.7 193.2000000000001 183.6C194.0000000000001 193.9 199.1000000000001 201.4 207.8000000000001 206.7C208.3000000000001 207.1 208.8000000000001 207.4 209.4 207.8zM210.6 199.1C209.1 199.1 208 198 208 196.6S209.2 193.9 210.6 193.9C212 193.9 213.3 195.1 213.3 196.5C213.2 198 212.1 199.1 210.6 199.1zM239.4 199.1C237.9 199.1 236.8 197.9 236.8 196.5C236.8 195.1 238 193.9 239.3 193.9C240.7 193.9 242 195.1 242 196.5C242.1 197.9 240.9 199.1 239.4 199.1zM176.8 159.4V174.1C176.8 177.5 178.8 180.1 182 181C185.1 181.8 188.4 180.5 190 177.5C190.5 176.5 190.8 175.3 190.8 174.2C190.9 164.3 190.9 154.4 190.8 144.4C190.8 140.5 187.6 137.4 183.7 137.4C179.9 137.4 176.7 140.5 176.7 144.3C176.8 149.4 176.8 154.4 176.8 159.4zM273.2 159.3V144.7C273.2 140.7 270.2 137.5 266.3 137.5C262.3 137.5 259.1 140.6 259.1 144.7C259 152.4 259.1 160.1 259.1 167.8C259.1 170.5 259 173.2 259.4000000000001 175.9C259.9000000000001 179.3 263.4000000000001 181.6 266.9000000000001 181.3C270.5000000000001 180.9 273.2000000000001 178.1 273.2000000000001 174.5V159.3z" />
    <glyph glyph-name="phone-apple"
      unicode="&#xF17F;"
      horiz-adv-x="450" d=" M268.8 179.6C267.3 178.4 265.9000000000001 177.3 264.5 176.2C259.9 172.2 257.4 167.3 256.6 161.2C255.9000000000001 155 257 149.3 260.3 144C262.9000000000001 140 266.3 137 270.6 134.9C271.5 134.4 271.7000000000001 134 271.4000000000001 133C268.5000000000001 124.5 263.9000000000001 117 258.0000000000001 110.3C255.5000000000001 107.5 252.7000000000001 105.1 248.8000000000001 104.3C245.9000000000001 103.7 243.1000000000001 104.1 240.3000000000001 105C237.7000000000001 105.9 235.1000000000001 107 232.4000000000001 107.7C227.4000000000001 109.2 222.5000000000001 108.2 217.7000000000001 106.4C215.0000000000001 105.4 212.2000000000001 104.3 209.3000000000001 103.7C206.1000000000001 103.1 203.3000000000001 104.5 200.7000000000001 106.3C197.3000000000001 108.7 194.8000000000001 111.8 192.4000000000001 115.1C186.6000000000001 122.7000000000001 182.6000000000001 131.3 180.2000000000001 140.6C178.9000000000001 145.5 178.2000000000001 150.6 178.2000000000001 155.7C178.2000000000001 160.9 178.7000000000001 166 180.5000000000001 170.9C183.7000000000001 179.5 189.4000000000001 185.9 198.2000000000001 189.1C203.9000000000001 191.2 209.6000000000001 191 215.3000000000001 188.9C218.1000000000001 187.9 220.9000000000001 186.9 223.6000000000001 186C224.9000000000001 185.5 226.2000000000001 185.6 227.6000000000001 186C231.5000000000001 187.4 235.5000000000001 188.8 239.4000000000001 190C249.6000000000001 193 262.8000000000001 188.8 268.8000000000001 179.6zM224.9 195C225 200.5 227.2 205.2 230.6 209.4C234.1 213.7 238.7 216.3 243.9 217.9C244.9 218.2 245.9 218.2 246.9 218.3C247.8 218.4 248 218 248.1 217.1C248.2 210.3 245.8 204.5 241.5 199.4C238.9 196.5 236 194 232.2 192.9C230.3 192.3000000000001 228.3 192.3000000000001 226.4 191.9C225.3 191.7000000000001 224.9 192.2000000000001 225 193.2000000000001C224.9 193.9 224.9 194.5000000000001 224.9 195.0000000000001z M351.8 161V344.8C351.8 362.1 343.3 373.9 328.3 381.7C321.1 385.5 313.2 385.8 305.5 385.8C272 386 238.5 386.1 205.1 385.9C181.2 385.8 157.2 385.8 133.3 384.9C122.9 384.5 114.4 378.7 107.7 370.6C100.5 361.9 98.1 351.7 98.1 340.5C98.2 220.5 98.2 100.5 98.2 -19.5C98.2 -23.6 98 -27.8 98.9 -31.6C104 -51.5 120.2 -63.9 140.7 -63.9C196.9 -63.9 253 -63.9 309.2000000000001 -63.8C313.4000000000001 -63.8 317.7000000000001 -63.6 321.7000000000001 -62.4C339.5000000000001 -57.1 352.1 -41.3 351.9000000000001 -21.0000000000001C351.4000000000001 39.6 351.8 99.9999999999999 351.8 161zM201.7 348.7C203.3 349.6 205.4 349.9 207.3 349.9C218.7 350 230.2 350 241.6 350H243.4C246.7 350 250 349 250.1 345.4C250.3 341.6 246.9 340.3 243.5 340.3C237.2 340.2 230.9 340.3 224.6 340.3C218.7 340.3 212.9 340.2 207 340.4C205.3 340.4 203.4 340.8 201.9 341.6C198.6 343.2 198.6 347 201.7 348.7zM187.8 349.9C190.4 349.9 192.5 347.8 192.5 345.2S190.4 340.5 187.8 340.5S183.1 342.6 183.1 345.2S185.2 349.9 187.8 349.9zM250.3 -27.3C249.7 -39.9 239 -51.6 224.5 -51.4999999999999C210.5 -51.3999999999999 199.2 -39.8 199.4 -25.8C199.6 -10.3 211.8 -0.4 224.9 -0.4C238.5 -0.4 251 -11.7 250.3 -27.3zM324.9 10.9H124.3C118.9 10.9 118.5 11.3 118.5 16.9V161H118.9V305.1C118.9 310.6 119.2 311 124.6 311H324.6C331.3 311 331.5 310.7 331.5 304.2V17.3C331.6 10.9 331.6 10.9 324.9 10.9z" />
    <glyph glyph-name="phone"
      unicode="&#xF180;"
      horiz-adv-x="450" d=" M102.778 361V-39H347.223V361H102.778zM125 5.444V338.778H325V5.445H125z M224.957 -36.786C213.954 -36.786 204.992 -27.846 204.992 -16.776C204.992 -5.753 213.954 3.232 224.957 3.232C236.047 3.232 245.007 -5.752 245.007 -16.778C245.007 -27.846 236.047 -36.786 224.957 -36.786z" />
    <glyph glyph-name="photo-alt-filled"
      unicode="&#xF181;"
      horiz-adv-x="450" d=" M0 386V-64H450V386H0zM30 -34V18.5L135.2 127.3L300.3 -34H30zM300 168.4C266.9 168.4 240 195.2 240 228.3C240 261.4 266.9 288.2000000000001 300 288.2000000000001S360 261.4000000000001 360 228.3C360 195.2 333.1 168.4 300 168.4z" />
    <glyph glyph-name="photo-alt"
      unicode="&#xF182;"
      horiz-adv-x="450" d=" M0 386V-64H450V386H0zM420 -34H314.2L125.7 148.9L30 43.7V356H420V-34z M298.5 187.1C333.2 187.1 361.3 215.8 361.3 251.3S333.1 315.5 298.5 315.5C263.8 315.5 235.6 286.8 235.6 251.3S263.8 187.1 298.5 187.1z" />
    <glyph glyph-name="photo"
      unicode="&#xF183;"
      horiz-adv-x="450" d=" M226 25.9C278.2 25.9 320.7 68.4 320.7 120.7S278.2 215.4 226 215.4S131.2 172.9 131.2 120.7S173.8 25.9 226 25.9zM226 168C252.1 168 273.4 146.7 273.4 120.6C273.4 94.4999999999999 252.1 73.2 226 73.2C199.9 73.2 178.6 94.5 178.6 120.6C178.6 146.8 199.8 168 226 168z M350 267L301.6 338H150.3L102.3 267H0V-17H450V267H350zM164.2 309.8L287.9 309.5L316.8 266.9H135.5L164.2 309.8zM421 11H29V239H421V11z M48.3 192.8C48.3 179.7108514290102 58.9108514290102 169.1 72 169.1C85.0891485709898 169.1 95.7 179.7108514290102 95.7 192.8C95.7 205.8891485709898 85.0891485709898 216.5 72 216.5C58.9108514290102 216.5 48.3 205.8891485709898 48.3 192.8z" />
    <glyph glyph-name="pie-chart"
      unicode="&#xF184;"
      horiz-adv-x="450" d=" M247.3 386V182.1H450C450 294.7 359.3 386 247.3 386z M226 343H212.2C152.6 343 98.3 321.9 59.3 283.5C21.1 245.9 0 194.7 0 139.3C0 84.4 19.4 33.3 54.6 -4.6C90.6 -43.3 140.2 -64.6 194.1 -64.6C221.3 -64.6 248.1 -58.3 273.8 -45.7C297.4000000000001 -34.2 319 -18.0000000000001 338 2.3C375 41.9999999999999 397 93.6999999999999 397 140.5V155H226V343zM367.4 126C358.8 49 284.7 -35.5 194.1 -35.5C148.3 -35.5 106.3 -17.5 75.8 15.2C45.6 47.7 28.8 91.7 28.8 139.3C28.8 186.9 46.6 230.8 79.3 263C109.7 292.9 151 310.6 197 313.7V126H367.4z" />
    <glyph glyph-name="pin"
      unicode="&#xF185;"
      horiz-adv-x="450" d=" M411.7 194.7L450 232.9L297 386L258.7 347.7L277.5 329L144.1 195.6L115.7 224L77.4 185.7L152.8 110.3L0 -44.2L19.9 -63.9L172.6 90.4L249.5 13.5L287.8 51.8L259.4000000000001 80.2L393 213.5L411.7 194.7zM239.7 99.9L210.7 128.8L202.8 136.6L163.8 175.6L296.8 308.6L372.6 232.8L239.7 99.9z" />
    <glyph glyph-name="play-filled"
      unicode="&#xF186;"
      horiz-adv-x="450" d=" M225 386C100.9 386 0 285.1 0 161S100.9 -64 225 -64S450 36.9 450 161S349.1 386 225 386zM189 66.3V255.7L283.7 161L189 66.3z" />
    <glyph glyph-name="play"
      unicode="&#xF187;"
      horiz-adv-x="450" d=" M192.4 258.3L287.1 163.5L192.4 68.8 M189 255.7L283.7 161L189 66.3 M225 -64C100.9 -64 0 36.9 0 161S100.9 386 225 386S450 285.1 450 161S349.1 -64 225 -64zM225 362.3C114 362.3 23.7 272 23.7 161S114 -40.3 225 -40.3C336 -40.3 426.3 50 426.3 161S336 362.3 225 362.3z" />
    <glyph glyph-name="power"
      unicode="&#xF188;"
      horiz-adv-x="450" d=" M208 386H237V132H208z M225 -63.5C120.8 -63.5 36.1 21.3 36.1 125.4C36.1 164.3 48 201.7 70.5 233.4C92.4 264.2 122.6 287.7 158 301.2L167.6 276C137.2 264.4 111.2 244.3 92.5 217.8C73.3 190.7 63.1 158.7 63.1 125.4C63.1 36.1 135.7 -36.5 225 -36.5S386.9 36.1 386.9 125.4C386.9 158.7 376.7 190.6 357.5 217.8C338.7 244.3 312.8 264.4 282.4 276L292 301.2C327.4 287.7 357.7 264.2 379.5 233.4C402 201.7 413.9 164.3 413.9 125.4C413.9 21.2 329.2 -63.5 225 -63.5z" />
    <glyph glyph-name="printer"
      unicode="&#xF189;"
      horiz-adv-x="450" d=" M90 206V-19H360V251H90V206zM112.5 206H337.5V3.5H112.5V206z M0 341V116H67.5V138.5H22.5V318.5H427.5V138.5H382.5V116H450V341M157.5 93.5H292.5V71H157.5z M157.5 161H292.5V138.5H157.5z" />
    <glyph glyph-name="profile-filled"
      unicode="&#xF18A;"
      horiz-adv-x="450" d=" M223.7 386.2C100.2 385.2 -0.1 284.5 -0.1 160.8C-0.1 41 94 -57.1 212 -64V117H70L223.7 386.2z M253.2 384.1L115.6 143H239V38H265.1C309 38 345 74.2 345 118V143H371V118C371 59.5 323.6 12 265.1 12H239V-64C357 -57.1 450.9 40.8 450.9 160.7C450.9 275.5 364.4 370.3 253.2 384.1zM345 223H265V249H345V223z" />
    <glyph glyph-name="profile"
      unicode="&#xF18B;"
      horiz-adv-x="450" d=" M284 243H342V215H284z M384.1 320.1C341.6 362.6 285.1 386 225 386C164.9 386 108.4 362.6 65.9 320.1C23.4 277.6 0 221.1 0 161S23.4 44.4 65.9 1.9C108.4 -40.6 164.9 -64 225 -64C285.1 -64 341.6 -40.6 384.1 1.9C426.6 44.4 450 100.9 450 161S426.6 277.6 384.1 320.1zM226 71V-35H225C116.9 -35 29 52.9 29 161C29 268 115.2 355.3 221.9 357L82.7 128H226V71zM363.6 22.4C333.7000000000001 -7.5 295.9000000000001 -26.5 255.0000000000001 -32.7V42H258.4000000000001C284.8 42 305.5000000000001 49.5 319.8 64.2C333.8 78.7 341 99.4 341 125.9V157H313V125.9C313 88.1 295.1 71 258.4 71H255V157H133.4L253.9 354.9C295.3 348.8 333.5 329.7 363.7 299.6C400.7 262.6 421.1 213.3 421.1 161S400.7 59.4 363.6 22.4z" />
    <glyph glyph-name="question-filled"
      unicode="&#xF18C;"
      horiz-adv-x="450" d=" M383.4 319.4C341.1 361.7 284.8 385 225 385C165.2 385 108.9 361.7 66.6 319.4C24.3 277.1 1 220.8 1 161C1 101.2 24.3 44.9 66.6 2.6S165.2 -63 225 -63C284.8 -63 341.1 -39.7 383.4 2.6C425.7 44.9 449 101.2 449 161C449 220.8 425.7 277.1 383.4 319.4zM246 32H210V69H246V32zM302.3 195C297.2 187.2 286.6 175.7 270.7 160.6C259.1 149.6 251.5 140.4 248 132.7C244.5 125.1 242.7 114 242.7 99H211.1C211.1 116 213.1 129.5 217.1 139.8C221.1 150.1 230.1 162 244 175.3L258.5 189.3C262.8 193.3 266.4 197.5 269.1 201.9C274 209.6 276.4000000000001 217.6 276.4000000000001 225.9C276.4000000000001 237.5 272.8 247.5 265.8 256.1C258.8 264.6 247 268.9 230.7 268.9C210.5 268.9 196.6 261.3 188.9 246.7C184.5 238.5 182 227.1 181.4 211.1H149.8000000000001C149.8000000000001 237.1 157.1000000000001 257.5 171.7000000000001 273C186.3000000000001 288.6 206.4 296.5 231.9000000000001 296.5C255.5000000000001 296.5 274.4000000000001 289.9 288.6 276.6C302.8 263.3 309.9000000000001 246.3 309.9000000000001 225.6C310.0000000000001 212.9 307.4000000000001 202.8 302.3 195z" />
    <glyph glyph-name="question"
      unicode="&#xF18D;"
      horiz-adv-x="450" d=" M383.4 319.4C341.1 361.7 284.8 385 225 385C165.2 385 108.9 361.7 66.6 319.4C24.3 277.1 1 220.8 1 161C1 101.2 24.3 44.9 66.6 2.6C108.9 -39.7 165.2 -63 225 -63C284.8 -63 341.1 -39.7 383.4 2.6C425.7 44.9 449 101.2 449 161C449 220.8 425.7 277.1 383.4 319.4zM363.6 22.4C326.6 -14.6 277.4 -35 225 -35C172.6 -35 123.4 -14.6 86.4 22.4S29 108.6 29 161C29 213.4 49.4 262.6 86.4 299.6S172.7 357 225 357C277.4 357 326.6 336.6 363.6 299.6S421 213.4 421 161C421 108.6 400.6 59.4 363.6 22.4z M212 68.2H248V31.2H212zM290.7 275.6C276.5 288.9 257.6 295.5 234 295.5C208.5 295.5 188.5 287.6 173.8 272C159.2 256.4 151.9 236.1 151.9 210.1H183.5C184.1 226.1 186.6 237.5 191 245.7C198.7 260.4 212.7 267.9 232.8 267.9C249.1 267.9 260.8 263.6 267.9000000000001 255.1C274.9000000000001 246.6 278.5000000000001 236.5 278.5000000000001 224.9C278.5000000000001 216.6 276.1000000000001 208.6 271.2000000000001 200.9C268.5000000000001 196.5 264.9000000000001 192.3 260.6 188.3L246.1 174.3C232.3 160.9 223.3 149.1 219.2 138.8C215.2 128.4 213.2 115 213.2 98H244.8C244.8 113 246.6 124.1 250.1 131.7C253.6 139.3 261.2000000000001 148.5 272.8 159.5C288.7 174.6 299.3 186.1 304.4000000000001 193.9C309.5000000000001 201.7 312.1 211.9 312.1 224.4C311.9000000000001 245.4 304.8 262.3 290.7000000000001 275.6z" />
    <glyph glyph-name="radio-clicked"
      unicode="&#xF18E;"
      horiz-adv-x="450" d=" M384.1 320.1C341.6 362.6 285.1 386 225 386S108.4 362.6 65.9 320.1C23.4 277.6 0 221.1 0 161S23.4 44.4 65.9 1.9C108.4 -40.6 164.9 -64 225 -64S341.6 -40.6 384.1 1.9C426.6 44.4 450 100.9 450 161S426.6 277.6 384.1 320.1zM225 -34C117.5 -34 30 53.5 30 161S117.5 356 225 356S420 268.5 420 161S332.5 -34 225 -34z M224.6 251C175 251 134.6 210.8 134.6 161S175 71 224.6 71C274.3 71 314.6 111.3 314.6 161S274.3 251 224.6 251z" />
    <glyph glyph-name="radio"
      unicode="&#xF18F;"
      horiz-adv-x="450" d=" M225 -64C164.9 -64 108.4 -40.6 65.9 1.9C23.4 44.4 0 100.9 0 161S23.4 277.6 65.9 320.1C108.4 362.6 164.9 386 225 386S341.6 362.6 384.1 320.1C426.6 277.6 450 221.1 450 161S426.6 44.4 384.1 1.9C341.6 -40.6 285.1 -64 225 -64zM225 356C117.5 356 30 268.5 30 161S117.5 -34 225 -34S420 53.5 420 161S332.5 356 225 356z" />
    <glyph glyph-name="refresh"
      unicode="&#xF190;"
      horiz-adv-x="450" d=" M428.3 154.3C428.3 193.1 413.1 230 385.1 258.1C357.1 286.2000000000001 320.6 301.7000000000001 281.6 301.7000000000001V271.7000000000001C344.6 271.7000000000001 398.3 217.9 398.3 154.2C398.3 97.9 359.9000000000001 50.7 308.5 39.4V125.3000000000001L213.9 30.6000000000001L308.6 -64.0999999999999V8.8000000000001C377 20.6000000000001 428.3 81.4000000000001 428.3 154.3000000000001zM51.7 157.8C51.7 188.6 63.2 217.4 84.5 238.8C100.2 254.6 120 265.2000000000001 141.6 269.6V196.6L217 272H218.6V273.6L236.2 291.3L141.6 386V300.1C112 295.3 84.8 281.5 63.4 260C36.5 232.9 21.7 196.7 21.7 157.9C21.7 78.4 87.6 13.7 168.6 13.7V43.7C103.6 43.6 51.7 94.9 51.7 157.8000000000001z" />
    <glyph glyph-name="remove"
      unicode="&#xF191;"
      horiz-adv-x="450" d=" M450 365.7L429.8 385.9L225 181.2L20.3 386L0 365.7L204.8 161L0 -43.8L20.3 -64L225 140.7L429.8 -64L450 -43.8L245.3 161" />
    <glyph glyph-name="report-builder"
      unicode="&#xF192;"
      horiz-adv-x="450" d=" M365.1 372.7L0 373V-51H450V291.7L365.1 372.7zM364 334.9L399.7 301H364V334.9zM28 -23V345L336 344.8V273H422V-23H28z M179.1 21.9L115.6 131.7L87.4 84.5L63.2 98.9L116 187.1L179.2 78.1L274.9 243.4L330.9 147.4L361.2 198.6L385.4 184.3L330.7 91.8L275 187.4" />
    <glyph glyph-name="research"
      unicode="&#xF193;"
      horiz-adv-x="450" d=" M275 253.1V323.2L312.4 386H138.8L176.1 323.2V253.1L19.7 11.6L75.3 -64H374.5L430.3 11.5L275 253.1zM201.1 245.7V330.1L182.7 361H268.4L250 330.1V245.8L399.7 13H50.3L80.7 59.9H225V84.9H96.9L130.6 136.9H225V161.9H146.7L201.1 245.7z" />
    <glyph glyph-name="return"
      unicode="&#xF194;"
      horiz-adv-x="450" d=" M383.6 386V57H144.6V154.6L36.4 45.3L144.6 -64V27H413.6V386" />
    <glyph glyph-name="revisions"
      unicode="&#xF195;"
      horiz-adv-x="450" d=" M423.5 386H158.8V94.8H450V386H423.5zM423.5 121.3H185.3V359.5H423.5V121.3zM79.4 41.9H370.6V15.4H79.4z M79.4 306.6H105.9V15.4H79.4z M0 -37.5H291.2V-64H0z M0 227.2H26.5V-64H0z" />
    <glyph glyph-name="save"
      unicode="&#xF196;"
      horiz-adv-x="450" d=" M248.7 267.6V386H201.3V267.6H130.3L225 172.8L319.7 267.6M390.8 196.5V-40.3H59.2V196.5H35.5V-64H414.5V196.5 M59.2 30.7H390.8V7H59.2zM106.6 101.8H343.4V78.1H106.6z" />
    <glyph glyph-name="search-box-filled"
      unicode="&#xF197;"
      horiz-adv-x="450" d=" M0 386H450V-64H0z M273 281C250.4 303.6 220.4 316 188.6 316C156.7 316 126.7 303.6 104.1 281C81.6 258.5 69.1 228.5 69.1 196.6S81.5 134.8 104.1 112.2C126.7 89.7 156.7 77.2 188.5 77.2C220.4 77.2 250.4 89.6 272.9 112.2C319.4 158.7 319.5 234.5 273 281zM188.5 102.5C163.4 102.5 139.7 112.3 122 130.1C104.2 147.9 94.4 171.5 94.4 196.6S104.2 245.4 122 263.2C139.8 281 163.4 290.8 188.6 290.8C213.7 290.8 237.4 281 255.1 263.2C272.8 245.5 282.6 221.8 282.6 196.7C282.6 171.5 272.8 147.9 255.0000000000001 130.1C237.3000000000001 112.3 213.7000000000001 102.5 188.5 102.5zM371.335 35.264L349.768 13.697L278.705 84.761L300.271 106.328z" />
    <glyph glyph-name="search-box"
      unicode="&#xF198;"
      horiz-adv-x="450" d=" M0 386V-64H450V386H0zM426 -40H24V362H426V-40z M269.4 277.5C247.8 299.1 219.1 311 188.6 311C158 311 129.3 299.1 107.7 277.5C86.1 255.9 74.2 227.2 74.2 196.6S86.1 137.3 107.7 115.7C129.3 94.1 158 82.2 188.6 82.2S247.9 94.1 269.5 115.7C314 160.3 314 232.9 269.4 277.5zM258.6 126.5C239.9 107.8 215 97.5 188.5 97.5C162.1 97.5 137.2 107.8 118.4 126.5C99.7 145.2 89.4 170.1 89.4 196.6S99.7 248 118.4 266.7C137.1 285.4 162 295.7 188.5 295.7C214.9 295.7 239.8 285.4 258.6 266.7C297.3 228 297.2 165.2 258.6 126.5zM371.335 35.264L349.768 13.697L278.705 84.761L300.271 106.328z" />
    <glyph glyph-name="search-filled"
      unicode="&#xF199;"
      horiz-adv-x="450" d=" M177.3 32C130 32 85.6 50.4 52.2 83.8C18.8 117.2 0.3 161.6 0.3 208.9S18.7 300.6 52.2 334C85.6 367.4 130.1 385.8 177.3 385.8C224.6 385.8 269 367.4 302.5 334C371.5 265 371.5 152.7 302.5 83.8C269.1 50.4 224.6 32 177.3 32zM177.3 332C144.4 332 113.5 319.2 90.2 296C66.9 272.7 54.1 241.8 54.1 208.9C54.1 176 66.9 145.1 90.2 121.9C113.5 98.6 144.4 85.8 177.3 85.8C210.2 85.8 241.1 98.6 264.4 121.9C312.4 169.9 312.4 248 264.4 296C241.2 319.2 210.2 332 177.3 332zM345.896 78.388L450.3490000000001 -26.052L412.2350000000001 -64.169L307.7820000000001 40.271z" />
    <glyph glyph-name="search"
      unicode="&#xF19A;"
      horiz-adv-x="450" d=" M174.2 37C127.7 37 83.9 55.5 51.1 88.4C18.1 121.3 0 165.2 0 211.7S18.1 302 51 335C83.9 367.8 127.7 386 174.2 386S264.5 367.9 297.4 335C365.3 267.1 365.3 156.2 297.4 88.3C264.4 55.5 220.7 37 174.2 37zM174.2 359.7C134.7 359.7 97.6 344.3 69.6 316.4C41.7 288.5 26.3 251.3 26.3 211.8S41.7 135.2 69.6 107.3C97.5 79.4 134.7 64 174.2 64S250.8 79.4 278.8 107.3C336.5 164.9 336.5 258.7000000000001 278.8 316.4C250.8 344.4 213.7 359.7 174.2 359.7zM337.964 80.573L450.054 -31.503L417.529 -64.033L305.436 48.04z" />
    <glyph glyph-name="segments-filled"
      unicode="&#xF19B;"
      horiz-adv-x="450" d=" M447 189.7C442 205.2 431.2 217.8 416.7 225.2C408.1 229.6 398.5 231.9 389 231.9C365.9 231.9 345.1 219.2 334.6 198.6C331.8 193.1 329.9000000000001 187.4 328.9000000000001 181.6V186H257.1L293.9000000000001 247.3C299.2000000000001 245.8 304.7000000000001 245 310.2000000000001 245C333.2000000000001 245 354.0000000000001 257.8 364.5000000000001 278.3C371.9000000000001 292.8 373.2000000000001 309.4 368.2000000000001 324.9C363.2000000000001 340.4 352.4000000000001 353 337.9000000000001 360.3C329.4000000000001 364.7 319.8 367 310.2000000000001 367C287.1 367 266.3000000000001 354.2 255.8000000000001 333.7C248.4000000000001 319.2 247.1000000000001 302.7 252.1000000000001 287.2C255.2000000000001 277.5 260.6 269 267.7000000000001 262.2L225.4000000000001 191.7L185.7000000000001 260.9C191.0000000000001 265.8 195.5000000000001 271.6 198.9 278.3C206.3000000000001 292.8 207.6 309.4 202.5 324.9C197.5 340.4 186.7 353 172.2 360.4C163.6 364.8 154.1 367.1 144.5 367.1C121.5 367.1 100.6 354.3 90.1 333.8C74.9 303.8 86.8 267 116.7 251.8C125.3 247.4 134.9 245.1 144.4 245.1C149.4 245.1 154.3 245.7 159 246.9L193.8 186.1H120C115.8 202.1 104.9 217 88.7 225.2C80.1 229.6 70.5 231.9 61 231.9C37.9 231.9 17.1 219.2 6.7 198.6C-8.5 168.6 3.4 131.9 33.3 116.6C41.9 112.2000000000001 51.4 110 61 110C84.1 110 104.9 122.7 115.4 143.3C117.5 147.4 119.1 152 120.2 156H204.7L158.9 75.1C154.3 76.2000000000001 149.6 76.8 144.9 76.8C121.9 76.8 101 64.1 90.5 43.5C75.3 13.5 87.3 -23.2 117.2 -38.4C125.8 -42.8 135.3 -44.9 144.9 -44.9C168 -44.9 188.8 -32.2 199.2 -11.7C212 13.4 205.6 43.3 185.6 61.3L225.6 131.9L267.7 59.4C263.1 54.9 259.1 49.5 256 43.5C240.8 13.5 252.7 -23.2 282.7 -38.4C291.3 -42.8 300.8 -44.9 310.4 -44.9C333.5 -44.9 354.3 -32.3 364.7 -11.7C372.1 2.8 373.4 19.2 368.4 34.7C363.4 50.2 352.6 62.8 338.1 70.2C329.6 74.6 320 76.9 310.5 76.9C304.7 76.9 299.1 76.1 293.7 74.6L246.1 156H329V160.5C332 142.2 343.6 125.6 361.4 116.6C369.9 112.2000000000001 379.5 110 389.1 110C412.2 110 433 122.7 443.4 143.2C450.8 157.8 452.1 174.2 447 189.7z" />
    <glyph glyph-name="segments"
      unicode="&#xF19C;"
      horiz-adv-x="450" d=" M447 189.7C442 205.2 431.2 217.8 416.7 225.2C408.1 229.6 398.5 231.9 389 231.9C365.9 231.9 345.1 219.2 334.6 198.6C332.5 194.5 331 190.1 329.9000000000001 186.1H257.1L293.9000000000001 247.4C299.2000000000001 245.9 304.7000000000001 245.1 310.2000000000001 245.1C333.2000000000001 245.1 354.0000000000001 257.9 364.5000000000001 278.4C371.9000000000001 292.9 373.2000000000001 309.5 368.2000000000001 325C363.2000000000001 340.5 352.4000000000001 353.1 337.9000000000001 360.4C329.4000000000001 364.8 319.8 367.1 310.2000000000001 367.1C287.1 367.1 266.3000000000001 354.3 255.8000000000001 333.8C248.4000000000001 319.3 247.1000000000001 302.8 252.1000000000001 287.3C255.2000000000001 277.6 260.6 269.1 267.7000000000001 262.3L225.4000000000001 191.8L185.7000000000001 261C191.0000000000001 265.9 195.5000000000001 271.7 198.9 278.4C206.3000000000001 292.9 207.6 309.5 202.5 325C197.5 340.5 186.7 353.1 172.2 360.5C163.6 364.9 154.1 367.2 144.5 367.2C121.5 367.2 100.6 354.5 90.1 333.9C82.7 319.4 81.4 302.8 86.5 287.4C91.5 271.9 102.3 259.3 116.8 252C125.4 247.6 135 245.3 144.5 245.3C149.5 245.3 154.4 245.9 159.1 247.1L193.9 186.3H120C115.8 202.3 104.9 217.2 88.7 225.4C80.1 229.8 70.5 232.1 61 232.1C37.9 232.1 17.1 219.4 6.7 198.8C-8.5 168.8 3.4 132.1 33.3 116.8C41.9 112.4 51.4 110.1999999999999 61 110.1999999999999C84.1 110.1999999999999 104.9 122.8999999999999 115.4 143.5C117.5 147.5999999999999 119.1 152.1999999999999 120.2 156.1999999999999H204.7L158.9 75.3C154.3 76.4 149.6 76.9999999999999 144.9 76.9999999999999C121.9 76.9999999999999 101 64.3 90.5 43.6999999999999C75.3 13.6999999999999 87.3 -23.0000000000001 117.2 -38.2C125.8 -42.6 135.3 -44.7 144.9 -44.7C168 -44.7 188.8 -32.0000000000001 199.2 -11.5000000000001C212 13.6 205.6 43.4999999999999 185.6 61.4999999999999L225.6 132.0999999999999L267.7 59.5999999999999C263.1 55.0999999999999 259.1 49.6999999999999 256 43.6999999999999C240.8 13.6999999999999 252.7 -23.0000000000001 282.7 -38.2C291.3 -42.6 300.8 -44.7 310.4 -44.7C333.5 -44.7 354.3 -32.0000000000001 364.8 -11.5000000000001C372.2 2.9999999999999 373.5 19.3999999999999 368.5 34.8999999999999C363.5 50.3999999999999 352.7 62.9999999999999 338.2 70.3999999999999C329.7 74.7999999999999 320.0999999999999 77.0999999999999 310.5999999999999 77.0999999999999C304.7999999999999 77.0999999999999 299.2 76.2999999999999 293.7999999999999 74.7999999999999L246.1 156H330C334.2 140 345.1 124.9 361.4 116.6C369.9 112.2000000000001 379.5 110 389.1 110C412.2 110 433 122.7 443.4 143.3C450.8 157.8 452.1 174.2 447 189.7zM144.8 275.1C139.9 275.1 135.2 276.2 130.7 278.5C123.4 282.2 117.9 288.6 115.4 296.4C112.8 304.3 113.5 312.6 117.2 320C122.5 330.4 133.1 336.9 144.8 336.9C149.7 336.9 154.4 335.8 158.8 333.5C166.1 329.8 171.6 323.4 174.1 315.5C176.7 307.6 176 299.2 172.3 291.9C167 281.6 156.5 275.1 144.8 275.1zM88.5 156.8C83.2 146.4 72.6 139.9 60.9 139.9C56 139.9 51.3 141 46.9 143.3C31.7 151 25.7 169.7 33.4 184.9C38.7 195.3 49.2 201.7 60.9 201.7C65.8 201.7 70.5 200.6 75 198.3C90.2 190.6 96.2 172 88.5 156.8zM324.3 43.3C331.7 39.5 337.2 33.1 339.7 25.3C342.2 17.5 341.6 9.1 337.8 1.7C332.5 -8.7 321.9000000000001 -15.2 310.2 -15.2C305.3 -15.2 300.6 -14.1 296.2 -11.8C281 -4.1 274.9 14.6 282.7 29.8C288 40.2 298.6 46.7 310.3 46.7C315.2 46.7 319.8 45.6 324.3 43.3zM282.7 320.1C288 330.5 298.6 337 310.3 337C315.2 337 319.9000000000001 335.9 324.3 333.6C331.6 329.9 337.1 323.5 339.7 315.7C342.3 307.8 341.6 299.5 337.8 292.1C332.5 281.7 321.9000000000001 275.2 310.3 275.2C305.4000000000001 275.2 300.7 276.3 296.2 278.6C288.8 282.3 283.4 288.7 280.8 296.6C278.3 304.4 278.9000000000001 312.7 282.7 320.1zM172.3 1.7C167 -8.7 156.4 -15.2 144.7 -15.2C139.8 -15.2 135.1 -14.1 130.7 -11.8C115.5 -4.1 109.5 14.6 117.2 29.8C122.5 40.2 133.1 46.7 144.8 46.7C149.7 46.7 154.4 45.6 158.8 43.3C174 35.6 180.1 16.9 172.3 1.7zM416.6 156.8C411.3 146.4 400.8 139.9 389 139.9C384.1 139.9 379.4 141 375 143.3C359.8 151 353.8 169.7 361.4 184.9C366.7 195.3 377.3 201.8 389 201.8C393.9 201.8 398.6 200.7 403.1 198.4C410.5 194.6 415.9000000000001 188.3 418.5 180.4C421 172.6 420.3 164.2 416.6 156.8z" />
    <glyph glyph-name="selling-rules"
      unicode="&#xF19D;"
      horiz-adv-x="450" d=" M198 285.7H357V259.7H198zM198 201.7H357V174.7H198zM199 119.7H357V92.7H199zM146 286.7H176V259.7H146zM146 201.7H176V174.7H146zM146 119.7H176V92.7H146z M424 385.7H79.4C50.3 385.7 26 362.2 26 333.1V-11C26 -40.1 50.3 -64.3 79.4 -64.3H424V-37.3H79.4C64.8 -37.3 52.9 -25.3 52.9 -11.3H424V385.7zM397 15.7H106V359.7H397V15.7z" />
    <glyph glyph-name="settings-filled"
      unicode="&#xF19E;"
      horiz-adv-x="450" d=" M399.2 161C399.2 167.2 398.8 173.7 397.9 180.8L442 235.1L397.5 312.1L328.6 301C317.9000000000001 308.9 306.4000000000001 315.6 294.2000000000001 320.8L269.5 386H180.6L155.7 320.8C143.6 315.5 132.1 308.9 121.4 301L52.4 312L7.9 235L52.1 180.8C51.2 173.6 50.8 167.2 50.8 161C50.8 154.8 51.2 148.5 52.1 141.2L7.9 87L52.4 10L121.3 21.1C132 13.2 143.5 6.5 155.6 1.2L180.5 -63.9999999999999H269.4000000000001L294.3 1.2C306.5 6.5000000000001 318 13.2 328.7 21.1L397.6 10L442.1 87L398 141.2C398.8 148.4 399.2 154.7 399.2 161zM225 64.6C171.8 64.6 128.6 107.9 128.6 161C128.6 186.7 138.6 210.9 156.8 229.2000000000001C175 247.4000000000001 199.2 257.4000000000001 225 257.4000000000001C278.1 257.4000000000001 321.4 214.1 321.4 161C321.4 107.8 278.2 64.6 225 64.6z" />
    <glyph glyph-name="settings"
      unicode="&#xF19F;"
      horiz-adv-x="450" d=" M225 257.4C199.2 257.4 175 247.4 156.8 229.2C138.6 211 128.6 186.8 128.6 161C128.6 107.8 171.9 64.6 225 64.6C278.1 64.6 321.4000000000001 107.8 321.4000000000001 161C321.4000000000001 214.1 278.1 257.4000000000001 225 257.4000000000001zM225 88.7000000000001C185.1 88.7000000000001 152.7 121.2000000000001 152.7 161.0000000000001C152.7 180.3000000000001 160.2 198.5000000000001 173.9 212.1000000000001C187.6 225.8000000000001 205.7 233.3000000000001 225.1 233.3000000000001C264.9 233.3000000000001 297.4 200.9 297.4 161.0000000000001C297.3 121.1000000000001 264.9 88.7000000000001 225 88.7000000000001z M399.2 161C399.2 167.2 398.8 173.7 397.9 180.8L442 235.1L397.5 312.1L328.6 301C317.9000000000001 308.9 306.4000000000001 315.6 294.2000000000001 320.8L269.5 386H180.6L155.7 320.8C143.6 315.5 132.1 308.9 121.4 301L52.4 312L7.9 235L52.1 180.8C51.2 173.6 50.8 167.2 50.8 161C50.8 154.8 51.2 148.5 52.1 141.2L7.9 87L52.4 10L121.3 21.1C132 13.2 143.5 6.5 155.6 1.2L180.5 -63.9999999999999H269.4000000000001L294.3 1.2C306.5 6.5000000000001 318 13.2 328.7 21.1L397.6 10L442.1 87L398 141.2C398.8 148.4 399.2 154.7 399.2 161zM412.9 84.7L385.1 36.4L322.2 46.5L318.1 43.2C306.7 34.2 294.1 26.9 280.6 21.5L275.7 19.5L252.8 -40H197.1L174.4 19.5L169.5 21.5C156 26.9 143.4 34.2 132 43.2L127.8 46.5L65 36.4L37.1 84.6L77.4 134.1L76.6 139.3C75.4 147.6 74.8 154.4 74.8 160.9C74.8 167.4 75.4 174.2 76.6 182.5L77.4 187.6999999999999L37.1 237.2L64.9 285.5L127.8 275.3L132 278.5999999999999C143.4 287.7 156.1 294.9999999999999 169.5 300.3L174.4 302.3L197.1 361.8H252.8L275.5 302.3L280.4 300.3C293.9 294.8999999999999 306.5 287.5999999999999 317.9 278.5999999999999L322 275.3L384.9 285.3999999999999L412.7 237.2L372.4 187.6999999999999L373.2 182.5C374.4 174.3 374.9 167.5 374.9 160.9C374.9 154.3 374.4 147.5 373.2 139.3L372.4 134.1L412.9 84.7z" />
    </font>
</defs>
</svg>
